<?xml version="1.0" encoding="UTF-8" standalone="no"?><svg xmlns="http://www.w3.org/2000/svg" xmlns:xlink="http://www.w3.org/1999/xlink" contentScriptType="text/ecmascript" fill="#000000" width="443.5" zoomAndPan="magnify" contentStyleType="text/css" viewBox="0.0 0.0 443.5 190.9" height="190.9" preserveAspectRatio="xMidYMid meet" version="1"><g><linearGradient x1="14.704" y1="214.958" x2="428.769" gradientUnits="userSpaceOnUse" y2="-24.102" xlink:type="simple" xlink:actuate="onLoad" id="a" xlink:show="other"><stop stop-color="#7386c6" offset="0"/><stop stop-color="#0097b2" offset="1"/></linearGradient><path fill="url(#a)" d="M442.973,29.178H0.5V0.5h442.472V29.178z M442.973,161.678H0.5v28.678h442.472V161.678z"/></g><g id="change1_1"><path fill="#ffebe3" d="M395.632,22.732h-15.785V6.947h15.785V22.732z M415.709,6.947h-15.785v15.785h15.785V6.947z M435.785,6.947 H420v15.785h15.785V6.947z M442.973,29.178v132.5H0.5v-132.5H442.973z M435.785,36.877H7.688v117.102h428.097V36.877z"/></g><g id="change2_1"><path fill="#1a1a1a" d="M435.785,36.377H7.688c-0.276,0-0.5,0.224-0.5,0.5v117.102c0,0.276,0.224,0.5,0.5,0.5h428.098 c0.276,0,0.5-0.224,0.5-0.5V36.877C436.285,36.601,436.062,36.377,435.785,36.377z M435.285,153.479H8.188V37.377h427.098V153.479z M442.973,0H0.5C0.224,0,0,0.224,0,0.5v28.678v132.5v28.678c0,0.276,0.224,0.5,0.5,0.5h442.473c0.276,0,0.5-0.224,0.5-0.5v-28.678 v-132.5V0.5C443.473,0.224,443.249,0,442.973,0z M1,29.678h441.473v131.5H1V29.678z M1,1h441.473v27.678H1V1z M442.473,189.856H1 v-27.678h441.473V189.856z M395.632,6.447h-15.784c-0.276,0-0.5,0.224-0.5,0.5v15.785c0,0.276,0.224,0.5,0.5,0.5h15.784 c0.276,0,0.5-0.224,0.5-0.5V6.947C396.132,6.67,395.908,6.447,395.632,6.447z M395.132,22.231h-14.784V7.447h14.784V22.231z M415.709,6.447h-15.785c-0.276,0-0.5,0.224-0.5,0.5v15.785c0,0.276,0.224,0.5,0.5,0.5h15.785c0.276,0,0.5-0.224,0.5-0.5V6.947 C416.209,6.67,415.985,6.447,415.709,6.447z M415.209,22.231h-14.785V7.447h14.785V22.231z M435.785,6.447H420 c-0.276,0-0.5,0.224-0.5,0.5v15.785c0,0.276,0.224,0.5,0.5,0.5h15.785c0.276,0,0.5-0.224,0.5-0.5V6.947 C436.285,6.67,436.062,6.447,435.785,6.447z M435.285,22.231H420.5V7.447h14.785V22.231z M403.032,20.224h9.746 c0.276,0,0.5-0.224,0.5-0.5V9.978c0-0.276-0.224-0.5-0.5-0.5h-9.746c-0.276,0-0.5,0.224-0.5,0.5v9.747 C402.532,20,402.756,20.224,403.032,20.224z M403.532,19.224v-6.969h8.746v6.969H403.532z M382.366,19.724 c0-0.276,0.224-0.5,0.5-0.5h9.747c0.276,0,0.5,0.224,0.5,0.5s-0.224,0.5-0.5,0.5h-9.747C382.59,20.224,382.366,20,382.366,19.724z M423.561,18.464l3.625-3.625l-3.625-3.625c-0.195-0.195-0.195-0.512,0-0.707s0.512-0.195,0.707,0l3.625,3.625l3.625-3.625 c0.195-0.195,0.512-0.195,0.707,0s0.195,0.512,0,0.707l-3.625,3.625l3.625,3.625c0.195,0.195,0.195,0.512,0,0.707 c-0.098,0.098-0.226,0.146-0.354,0.146s-0.256-0.049-0.354-0.146l-3.625-3.625l-3.625,3.625c-0.098,0.098-0.226,0.146-0.354,0.146 s-0.256-0.049-0.354-0.146C423.365,18.976,423.365,18.66,423.561,18.464z"/></g></svg>