<?xml version="1.0" encoding="UTF-8" standalone="no"?><svg xmlns="http://www.w3.org/2000/svg" xmlns:xlink="http://www.w3.org/1999/xlink" contentScriptType="text/ecmascript" fill="#000000" width="358.2" zoomAndPan="magnify" contentStyleType="text/css" viewBox="0.0 -0.0 358.2 500.0" height="500" preserveAspectRatio="xMidYMid meet" version="1"><g id="change1_1"><path fill="#240960" d="M358.202,130.852v194.97v64.989c0,0.311-0.166,0.599-0.436,0.755l-187.61,108.316 c-0.135,0.078-0.286,0.117-0.436,0.117c-0.151,0-0.302-0.039-0.436-0.117c-0.27-0.156-0.436-0.444-0.436-0.755v-31.991 L114.31,435.65v9.321c0,0.311-0.166,0.599-0.436,0.755c-0.134,0.078-0.285,0.117-0.436,0.117c-0.15,0-0.301-0.039-0.436-0.117 L0.436,380.734C0.166,380.579,0,380.291,0,379.979v-65.22V141.683c0-0.311,0.166-0.599,0.436-0.755c0.27-0.156,0.602-0.156,0.872,0 l36.213,20.908V120.02c0-0.103,0.024-0.2,0.058-0.293c0.009-0.025,0.018-0.048,0.03-0.072c0.036-0.079,0.082-0.152,0.141-0.216 c0.007-0.008,0.012-0.018,0.02-0.026c0.055-0.057,0.117-0.108,0.188-0.148L244.328,0.117c0.27-0.156,0.602-0.156,0.872,0 l112.566,64.99c0.27,0.156,0.436,0.444,0.436,0.755c0,0.311-0.166,0.599-0.436,0.755l-74.889,43.237l0.497,62.689l73.52-42.447 c0.27-0.156,0.602-0.156,0.872,0C358.036,130.253,358.202,130.541,358.202,130.852z"/></g><g id="change2_1"><path fill="#3c67bf" d="M253.079,127.058l4.99,2.844c0.272,0.155,0.439,0.443,0.44,0.755l0.035,12.189 c0.001,0.312-0.165,0.601-0.436,0.758l-107.755,62.212c-0.135,0.078-0.286,0.117-0.436,0.117c-0.15,0-0.301-0.039-0.435-0.117 c-0.27-0.155-0.436-0.442-0.437-0.753l-0.057-20.184l-2.251-1.3l0.205,72.477c0.001,0.154-0.04,0.305-0.117,0.438l-12.916,22.373 c-0.076,0.133-0.186,0.243-0.319,0.319l-9.762,5.636c0,0,0,0-0.001,0.001l-9.516,5.494v3.84l22.456-12.965 c0.27-0.155,0.601-0.156,0.871,0c0.27,0.155,0.436,0.442,0.437,0.753l0.033,11.439c0.001,0.312-0.165,0.601-0.436,0.758 l-23.36,13.486v3.496l22.504-12.993c0.269-0.156,0.601-0.156,0.871,0c0.27,0.155,0.436,0.442,0.437,0.753l0.033,11.439 c0.001,0.312-0.165,0.601-0.436,0.757l-23.408,13.515v3.495l22.552-13.02c0.27-0.156,0.601-0.156,0.871,0 c0.27,0.155,0.436,0.442,0.437,0.753l0.016,5.535l1.497-0.864v-48.401c0-0.417,0.337-0.754,0.754-0.754 c0.417,0,0.754,0.338,0.754,0.754v47.531l27.659-15.969v-3.388l-19.121,11.039c-0.135,0.078-0.286,0.117-0.436,0.117 c-0.15,0-0.3-0.038-0.435-0.116c-0.27-0.155-0.436-0.442-0.437-0.753l-0.163-57.681c-0.001-0.312,0.165-0.601,0.436-0.758 l20.157-11.637v-1.281l-16.425,9.483c-0.168,0.097-0.35,0.143-0.531,0.143c-0.368,0-0.725-0.191-0.923-0.532 c-0.294-0.509-0.12-1.16,0.39-1.453l84.262-48.649c0.508-0.294,1.16-0.12,1.453,0.389c0.115,0.199,0.139,0.416,0.119,0.628 l30.194-17.433v-3.818l-98.802,57.418c-0.136,0.078-0.287,0.118-0.438,0.118c-0.15,0-0.301-0.039-0.436-0.117l-1.58-0.912 l-13.708,7.914c-0.168,0.097-0.35,0.143-0.531,0.143c-0.368,0-0.725-0.191-0.923-0.532c-0.294-0.509-0.12-1.16,0.39-1.453 l12.644-7.3l-3.331-1.923l-8.249,4.763c-0.168,0.097-0.35,0.143-0.531,0.143c-0.368,0-0.725-0.191-0.923-0.532 c-0.294-0.509-0.12-1.16,0.39-1.453l7.185-4.149l-6.32-3.649l-3.909-2.257c-0.269-0.155-0.435-0.443-0.436-0.754 c0-0.311,0.165-0.599,0.434-0.755l10.216-5.937l-6.305-3.641l-3.909-2.257c-0.269-0.156-0.435-0.443-0.436-0.754 c0-0.311,0.165-0.598,0.434-0.755l111.536-64.818c0.271-0.157,0.603-0.157,0.874-0.001l3.909,2.257l2.754,1.591v-29.555 L253.079,127.058z M144.007,317.363c0,0.417-0.337,0.754-0.754,0.754c-0.416,0-0.754-0.338-0.754-0.754v-50.149 c0-0.417,0.338-0.754,0.754-0.754c0.417,0,0.754,0.338,0.754,0.754V317.363z M146.824,312.485c0,0.417-0.338,0.754-0.754,0.754 c-0.417,0-0.754-0.337-0.754-0.754v-50.149c0-0.417,0.338-0.754,0.754-0.754c0.416,0,0.754,0.338,0.754,0.754V312.485z M168.848,454.292l-54.539-31.487v-42.825v-2.803l54.539,31.487v25.475V454.292z M114.31,345.057v-3.496l16.999-9.814l-0.01,3.502 L114.31,345.057z M52.859,170.691v-41.312l27.172,15.688l-5.606,3.237c-0.271,0.157-0.437,0.446-0.436,0.758l0.096,33.884 L52.859,170.691z M281.141,110.856l0.497,62.69l-12.507,7.22v-3.824l10.991-6.387c0.269-0.157,0.434-0.444,0.434-0.755 c0-0.311-0.167-0.598-0.436-0.754l-10.214-5.897l10.216-5.937c0.269-0.157,0.434-0.444,0.434-0.755c0-0.311-0.167-0.598-0.436-0.754 l-10.988-6.344V117.79L281.141,110.856z M168.848,406.649l-54.539-31.487v-16.634l16.951-9.787l-0.098,34.573 c-0.001,0.312,0.165,0.601,0.436,0.757l37.25,21.506V406.649z M168.848,465.124l-54.539-31.488v-8.818l54.539,31.487V465.124z M39.265,162.843V121.53l11.85,6.842v41.312L39.265,162.843z M168.586,222.031l1.603-0.932l7.296,4.212l-5.329,3.096l-9.31-5.375 l3.288-1.911l1.577,0.91c0.135,0.078,0.286,0.117,0.436,0.117C168.299,222.148,168.45,222.109,168.586,222.031z M256.348,171.028 l5.327-3.096l7.296,4.212l-5.327,3.096L256.348,171.028z M210.605,197.611l5.328-3.096l7.296,4.212l-5.328,3.096L210.605,197.611z M187.734,210.902l5.327-3.096l7.296,4.212l-5.327,3.096L187.734,210.902z M233.477,184.32l5.327-3.096l7.296,4.212l-5.328,3.096 L233.477,184.32z M162.846,209.689l5.329-3.097l9.31,5.375l-5.329,3.097L162.846,209.689z M254.333,156.522l5.328-3.096l9.31,5.375 l-5.327,3.096L254.333,156.522z M223.228,185.384l-5.328,3.096l-9.31-5.375l5.328-3.096L223.228,185.384z M185.719,196.397 l5.327-3.096l9.31,5.375l-5.327,3.096L185.719,196.397z M231.462,169.814l5.327-3.096l9.31,5.375l-5.328,3.096L231.462,169.814z"/></g><g id="change3_1"><path fill="#ebf5fe" d="M114.31,356.515v-9.444l16.984-9.806l-0.027,9.459L114.31,356.515z M131.315,329.73l0.011-3.91 c0-0.041,0.011-0.08,0.017-0.12c0.005-0.035,0.005-0.071,0.014-0.105c0.011-0.04,0.031-0.076,0.047-0.114 c0.014-0.032,0.022-0.065,0.039-0.095c0.024-0.04,0.056-0.075,0.086-0.112c0.018-0.022,0.032-0.047,0.052-0.067 c0.034-0.034,0.075-0.06,0.115-0.088c0.023-0.017,0.042-0.037,0.067-0.052l4.683-2.703l-0.014-5.03l-22.12,12.771v9.444 L131.315,329.73z M136.409,309.824l-0.027-9.428l-22.072,12.743v9.444L136.409,309.824z M136.361,292.884l-0.026-9.428 l-22.024,12.716v9.443L136.361,292.884z M244.764,1.878l110.822,63.984L150.959,184.003L40.137,120.02L244.764,1.878z M244.328,11.338L57.394,119.265c-0.27,0.156-0.436,0.444-0.436,0.755s0.166,0.599,0.436,0.755l93.129,53.768 c0.135,0.078,0.285,0.117,0.436,0.117c0.151,0,0.301-0.039,0.436-0.117L338.329,66.617c0.27-0.156,0.436-0.444,0.436-0.755 s-0.166-0.599-0.436-0.755L245.2,11.338C244.931,11.183,244.598,11.183,244.328,11.338z M59.574,120.02l91.385,52.762L336.15,65.862 L244.764,13.1L59.574,120.02z M1.744,143.193v171.063l7.974,4.621V158.516c0-0.311,0.166-0.599,0.436-0.755 c0.27-0.156,0.602-0.156,0.872,0l93.13,53.767c0.27,0.156,0.436,0.444,0.436,0.755v161.562l7.974,4.621V207.177L1.744,143.193z M102.848,212.787v160.049l-91.386-52.948V160.026L102.848,212.787z M18.761,209.827c-0.001,0.312,0.165,0.601,0.436,0.758 l74.971,43.285c0.135,0.078,0.286,0.117,0.436,0.117s0.3-0.039,0.435-0.117c0.27-0.155,0.436-0.442,0.437-0.753l0.05-17.767 l0.023-8.041c0.001-0.312-0.165-0.601-0.436-0.758l-74.971-43.284c-0.269-0.156-0.601-0.156-0.871-0.001 c-0.27,0.155-0.436,0.442-0.437,0.753l-0.022,8.041L18.761,209.827z M19.196,249.76l74.971,43.284 c0.135,0.078,0.286,0.117,0.436,0.117s0.3-0.039,0.435-0.116c0.27-0.155,0.436-0.442,0.437-0.753l0.05-17.767l0.023-8.041 c0.001-0.312-0.165-0.601-0.436-0.758L20.141,222.44c-0.269-0.156-0.601-0.156-0.871,0c-0.27,0.155-0.436,0.442-0.437,0.753 l-0.022,8.041l-0.051,17.767C18.76,249.314,18.926,249.603,19.196,249.76z"/></g><g id="change4_1"><path fill="#9fcdff" d="M168.848,305.669v39.954l-34.895-19.808L168.848,305.669z M124.502,244.508 c0.001,0.043,0.01,0.081,0.011,0.124c0.184-0.031,0.372-0.07,0.56-0.111c0.174-0.038,0.346-0.071,0.523-0.118 c0.258-0.069,0.523-0.16,0.787-0.249c0.178-0.06,0.354-0.111,0.536-0.181c0.235-0.089,0.476-0.2,0.716-0.304 c0.224-0.098,0.444-0.185,0.674-0.296c0.223-0.108,0.453-0.237,0.68-0.358c0.237-0.125,0.469-0.24,0.712-0.379 c0.545-0.317,1.093-0.663,1.645-1.037c0.033-0.022,0.065-0.043,0.098-0.066c0.536-0.366,1.076-0.762,1.617-1.181 c0.068-0.053,0.135-0.105,0.203-0.158c0.538-0.422,1.078-0.869,1.619-1.341c0.034-0.03,0.068-0.058,0.101-0.088 c0.582-0.512,1.166-1.051,1.75-1.619c0,0,0.001-0.001,0.001-0.001l0,0l0.36-0.356c0-0.07,0.002-0.141,0.001-0.21v0 c-0.002-0.732-0.036-1.439-0.094-2.126c-0.019-0.227-0.055-0.439-0.081-0.661c-0.051-0.45-0.104-0.899-0.18-1.327 c-0.044-0.252-0.105-0.489-0.158-0.733c-0.081-0.376-0.164-0.75-0.265-1.107c-0.07-0.247-0.153-0.482-0.232-0.72 c-0.11-0.329-0.223-0.655-0.35-0.966c-0.094-0.231-0.198-0.452-0.302-0.672c-0.138-0.292-0.282-0.577-0.436-0.85 c-0.118-0.208-0.24-0.41-0.367-0.607c-0.166-0.258-0.342-0.505-0.525-0.744c-0.139-0.181-0.28-0.361-0.428-0.531 c-0.197-0.226-0.405-0.435-0.618-0.64c-0.157-0.152-0.313-0.306-0.48-0.446c-0.061-0.052-0.13-0.093-0.192-0.143 c-0.009,0.025-0.02,0.055-0.029,0.081c-0.148,0.427-0.311,0.878-0.491,1.357c-0.028,0.075-0.057,0.15-0.087,0.227 c-0.191,0.501-0.397,1.022-0.624,1.567c-0.02,0.049-0.042,0.099-0.063,0.148c-0.233,0.554-0.483,1.126-0.754,1.714 c-0.015,0.032-0.028,0.063-0.043,0.095c-0.271,0.586-0.566,1.187-0.877,1.795c-0.044,0.086-0.086,0.17-0.13,0.256 c-0.305,0.59-0.632,1.187-0.975,1.787c-0.06,0.105-0.119,0.208-0.18,0.313c-0.348,0.598-0.716,1.197-1.104,1.795 c-0.064,0.1-0.13,0.198-0.196,0.297c-0.402,0.609-0.822,1.215-1.267,1.813c-0.052,0.07-0.107,0.138-0.159,0.207 c-0.474,0.628-0.966,1.249-1.489,1.852c-0.247,0.285-0.499,0.566-0.757,0.845c0.02,0.024,0.034,0.056,0.054,0.081 c0.182,0.231,0.352,0.478,0.497,0.75c0.012,0.021,0.02,0.046,0.032,0.068c0.134,0.257,0.247,0.535,0.346,0.825 c0.022,0.066,0.046,0.131,0.067,0.199c0.096,0.311,0.175,0.636,0.232,0.979c0.01,0.061,0.015,0.125,0.024,0.186 C124.461,243.852,124.49,244.174,124.502,244.508z M122.156,253.098c0.055,0.108,0.111,0.215,0.17,0.319 c0.088,0.154,0.181,0.301,0.277,0.447c0.061,0.092,0.12,0.187,0.183,0.276c0.11,0.154,0.229,0.299,0.348,0.443 c0.058,0.07,0.113,0.144,0.174,0.211c0.184,0.206,0.377,0.402,0.582,0.584c0.268,0.238,0.549,0.45,0.838,0.641 c0.101,0.067,0.208,0.119,0.311,0.181c0.191,0.114,0.382,0.229,0.579,0.326c0.13,0.064,0.264,0.114,0.396,0.171 c0.175,0.075,0.35,0.152,0.527,0.215c0.146,0.052,0.293,0.093,0.441,0.137c0.165,0.05,0.33,0.101,0.496,0.142 c0.157,0.038,0.313,0.07,0.47,0.101c0.155,0.031,0.31,0.062,0.465,0.087c0.161,0.025,0.321,0.045,0.48,0.064 c0.147,0.017,0.294,0.034,0.438,0.045c0.157,0.013,0.312,0.022,0.466,0.03c0.145,0.007,0.289,0.012,0.431,0.015 c0.139,0.002,0.277,0.003,0.411,0.002c0.059-0.001,0.115-0.003,0.174-0.005c0.362-0.621,0.713-1.245,1.046-1.873 c0.06-0.114,0.128-0.227,0.188-0.342c0.428-0.822,0.828-1.649,1.205-2.479c0.108-0.238,0.202-0.478,0.306-0.717 c0.257-0.592,0.508-1.183,0.739-1.776c0.119-0.307,0.227-0.614,0.339-0.921c0.192-0.527,0.378-1.054,0.549-1.58 c0.106-0.328,0.204-0.655,0.302-0.982c0.151-0.507,0.292-1.014,0.423-1.52c0.085-0.329,0.168-0.658,0.244-0.987 c0.118-0.508,0.22-1.014,0.316-1.518c0.059-0.314,0.123-0.629,0.174-0.941c0.088-0.541,0.155-1.076,0.217-1.609 c0.031-0.267,0.072-0.535,0.096-0.8c0.005-0.053,0.004-0.104,0.009-0.157c-2.16,1.993-4.319,3.62-6.431,4.843 c-2.158,1.24-4.215,1.997-6.115,2.254c-0.003,0-0.007,0-0.01,0.001c-0.006,0.047-0.02,0.095-0.027,0.143 c-0.062,0.431-0.14,0.867-0.247,1.307c-0.107,0.44-0.238,0.882-0.387,1.323c-0.049,0.145-0.111,0.289-0.164,0.435 c-0.109,0.295-0.218,0.59-0.344,0.883c-0.074,0.172-0.16,0.341-0.24,0.511c-0.123,0.263-0.246,0.525-0.383,0.782 c-0.095,0.18-0.199,0.355-0.3,0.532c-0.095,0.166-0.182,0.337-0.283,0.501C122.074,252.928,122.113,253.014,122.156,253.098z M116.196,259.326c-0.074,0.281-0.157,0.562-0.221,0.842c-0.092,0.398-0.162,0.795-0.235,1.191c-0.048,0.259-0.107,0.52-0.147,0.779 c-0.068,0.439-0.111,0.876-0.156,1.312c-0.022,0.212-0.056,0.427-0.073,0.638c-0.05,0.646-0.076,1.289-0.074,1.925 c0.001,0.404,0.015,0.795,0.036,1.178c0.006,0.123,0.017,0.241,0.025,0.362c0.018,0.256,0.038,0.508,0.064,0.754 c0.014,0.132,0.029,0.262,0.045,0.391c0.028,0.229,0.058,0.453,0.092,0.671c0.018,0.12,0.036,0.241,0.056,0.359 c0.04,0.233,0.083,0.458,0.128,0.679c0.018,0.087,0.034,0.178,0.053,0.263c0.065,0.3,0.134,0.59,0.206,0.866 c0.011,0.043,0.023,0.081,0.035,0.124c0.062,0.231,0.126,0.454,0.191,0.666c0.027,0.088,0.054,0.17,0.082,0.254 c0.031,0.097,0.063,0.19,0.094,0.283c0.254-0.152,0.508-0.313,0.762-0.475c0.235-0.15,0.471-0.294,0.705-0.453 c0.337-0.228,0.671-0.476,1.005-0.721c0.216-0.159,0.433-0.308,0.647-0.473c0.373-0.287,0.741-0.596,1.11-0.904 c0.172-0.144,0.346-0.277,0.517-0.425c0.539-0.467,1.072-0.953,1.599-1.463v0c0.006-0.006,0.012-0.012,0.018-0.018 c0.578-0.559,1.146-1.15,1.706-1.758c0.083-0.09,0.167-0.177,0.249-0.268c0.536-0.591,1.06-1.205,1.575-1.834 c0.097-0.118,0.193-0.237,0.289-0.357c0.509-0.635,1.007-1.287,1.49-1.954c0.078-0.108,0.154-0.218,0.232-0.327 c0.499-0.701,0.986-1.414,1.452-2.143c0.004-0.007,0.009-0.015,0.014-0.022c-2.247-0.099-4.909-0.698-7.033-2.585 c-0.707-0.629-1.315-1.369-1.818-2.212c-0.026,0.034-0.054,0.062-0.08,0.095c-0.266,0.339-0.54,0.665-0.823,0.975 c-0.045,0.05-0.092,0.096-0.138,0.145c-0.263,0.28-0.532,0.547-0.806,0.8c-0.051,0.047-0.1,0.096-0.151,0.142 c-0.3,0.269-0.605,0.518-0.915,0.751c-0.067,0.051-0.135,0.098-0.202,0.147c-0.32,0.231-0.642,0.448-0.968,0.636 c-0.124,0.072-0.246,0.139-0.368,0.202C116.364,258.683,116.281,259.005,116.196,259.326z M115.91,239.925 c0.123-0.071,0.246-0.138,0.367-0.202c0.095-0.317,0.177-0.634,0.261-0.95c0.075-0.287,0.16-0.574,0.226-0.859 c0.091-0.397,0.161-0.79,0.234-1.185c0.049-0.261,0.108-0.524,0.148-0.784c0.068-0.44,0.111-0.876,0.156-1.313 c0.022-0.212,0.056-0.426,0.073-0.637c0.05-0.647,0.076-1.289,0.074-1.925c-0.001-0.405-0.015-0.796-0.035-1.178 c-0.007-0.123-0.018-0.241-0.026-0.362c-0.018-0.256-0.038-0.51-0.064-0.756c-0.014-0.131-0.029-0.26-0.044-0.388 c-0.028-0.23-0.059-0.455-0.093-0.675c-0.018-0.119-0.036-0.239-0.055-0.355c-0.04-0.234-0.084-0.46-0.129-0.682 c-0.018-0.086-0.034-0.177-0.052-0.261c-0.065-0.3-0.134-0.59-0.206-0.865c-0.011-0.042-0.023-0.08-0.035-0.122 c-0.062-0.232-0.127-0.456-0.192-0.669c-0.026-0.087-0.054-0.167-0.08-0.251c-0.032-0.098-0.063-0.191-0.095-0.284 c-0.249,0.148-0.496,0.306-0.743,0.464c-0.242,0.155-0.485,0.303-0.726,0.467c-0.189,0.128-0.375,0.271-0.563,0.404v14.504 C114.833,240.632,115.367,240.238,115.91,239.925z M131.91,198.743c-0.285,0.478-0.577,0.951-0.876,1.42 c-0.086,0.134-0.176,0.264-0.262,0.397c-0.216,0.331-0.432,0.663-0.654,0.989c-0.119,0.173-0.242,0.343-0.363,0.514 c-0.196,0.28-0.391,0.561-0.592,0.835c-0.137,0.188-0.279,0.37-0.418,0.555c-0.19,0.253-0.38,0.508-0.574,0.757 c-0.148,0.19-0.301,0.375-0.452,0.562c-0.19,0.236-0.379,0.474-0.572,0.706c-0.157,0.188-0.317,0.37-0.476,0.555 c-0.192,0.223-0.382,0.448-0.577,0.666c-0.163,0.183-0.329,0.36-0.493,0.539c-0.195,0.212-0.389,0.425-0.586,0.631 c-0.168,0.177-0.339,0.347-0.509,0.519c-0.152,0.154-0.302,0.313-0.454,0.463l0.033,11.659c0.051-0.007,0.1-0.008,0.151-0.014 c0.154-0.018,0.306-0.027,0.459-0.04c0.255-0.022,0.509-0.042,0.761-0.051c0.16-0.005,0.318-0.005,0.476-0.005 c0.241-0.001,0.48,0.002,0.716,0.014c0.16,0.008,0.317,0.019,0.475,0.032c0.231,0.019,0.459,0.045,0.686,0.075 c0.155,0.021,0.308,0.044,0.461,0.071c0.225,0.039,0.447,0.087,0.668,0.138c0.146,0.034,0.293,0.067,0.437,0.106 c0.224,0.061,0.444,0.133,0.663,0.207c0.132,0.044,0.266,0.085,0.395,0.134c0.238,0.09,0.47,0.193,0.7,0.299 c0.103,0.047,0.21,0.088,0.311,0.138c0.329,0.163,0.651,0.339,0.962,0.534c4.13,2.57,6.416,7.693,6.435,14.424 c0,0.196-0.001,0.398-0.005,0.597c-0.115,6.852-2.514,14.546-6.755,21.664c-2.237,3.757-4.949,7.245-7.861,10.108l0.039,13.62 l8.257-4.767l12.682-21.967l-0.208-73.256l-6.427-3.711C138.104,185.25,135.789,192.234,131.91,198.743z M132.784,182.522 c-0.212,0.151-0.423,0.288-0.634,0.431c-0.018,0.012-0.035,0.024-0.052,0.036c-0.065,0.044-0.13,0.09-0.195,0.133 c-0.09,0.06-0.177,0.122-0.267,0.181c-0.291,0.189-0.578,0.361-0.864,0.532c-0.104,0.062-0.204,0.129-0.308,0.189 c-0.016,0.009-0.03,0.015-0.045,0.023c-0.018,0.01-0.036,0.023-0.053,0.033c-1.106,0.635-2.183,1.14-3.228,1.519 c-0.204,0.074-0.402,0.124-0.603,0.189c-0.313,0.1-0.629,0.205-0.935,0.281c-0.221,0.054-0.437,0.086-0.655,0.128 c-0.235,0.046-0.475,0.108-0.706,0.139c-0.006,0.047-0.02,0.096-0.027,0.143c-0.062,0.431-0.14,0.867-0.247,1.307 c-0.108,0.44-0.238,0.882-0.387,1.323c-0.049,0.145-0.11,0.287-0.163,0.431c-0.109,0.297-0.219,0.593-0.346,0.887 c-0.074,0.17-0.159,0.338-0.238,0.507c-0.124,0.264-0.248,0.528-0.386,0.788c-0.094,0.178-0.197,0.351-0.297,0.527 c-0.096,0.167-0.183,0.339-0.285,0.504c0.042,0.088,0.082,0.177,0.126,0.262c0.054,0.105,0.108,0.209,0.165,0.31 c0.089,0.156,0.184,0.307,0.281,0.454c0.06,0.09,0.117,0.183,0.18,0.27c0.111,0.155,0.23,0.302,0.351,0.446 c0.058,0.069,0.112,0.143,0.172,0.209c0.185,0.206,0.378,0.401,0.582,0.583c0.268,0.238,0.549,0.45,0.838,0.641 c0.099,0.066,0.203,0.117,0.305,0.177c0.194,0.116,0.387,0.233,0.587,0.33c0.124,0.06,0.251,0.108,0.376,0.162 c0.182,0.079,0.365,0.159,0.55,0.224c0.136,0.048,0.274,0.087,0.411,0.128c0.178,0.054,0.355,0.108,0.533,0.151 c0.141,0.035,0.282,0.062,0.423,0.091c0.174,0.035,0.347,0.07,0.52,0.096c0.142,0.022,0.281,0.039,0.421,0.056 c0.17,0.02,0.339,0.039,0.506,0.053c0.135,0.011,0.269,0.019,0.401,0.025c0.168,0.009,0.334,0.015,0.497,0.017 c0.121,0.002,0.241,0.003,0.359,0.002c0.071,0,0.138-0.003,0.208-0.005c3.497-5.989,5.64-12.358,6.151-18.207 c-0.043,0.04-0.086,0.074-0.128,0.113c-0.398,0.364-0.823,0.737-1.265,1.114c-0.112,0.095-0.224,0.193-0.336,0.286 c-0.446,0.372-0.911,0.742-1.393,1.108c-0.094,0.072-0.188,0.14-0.282,0.21c-0.204,0.152-0.405,0.306-0.614,0.455 C132.786,182.519,132.786,182.521,132.784,182.522z M121.816,239.342c0.269-0.288,0.531-0.58,0.788-0.877 c4.46-5.148,7.047-11.475,8.289-15.177c-2.125-1.122-4.708-1.434-7.517-0.902c-0.004,0-0.008,0.002-0.012,0.002 c-0.465,0.089-0.936,0.202-1.411,0.335c-0.158,0.044-0.319,0.102-0.478,0.152c-0.324,0.1-0.647,0.202-0.974,0.322 c-0.191,0.07-0.384,0.152-0.576,0.229c-0.3,0.12-0.599,0.243-0.902,0.38c-0.205,0.093-0.412,0.194-0.618,0.294 c-0.17,0.083-0.341,0.172-0.511,0.26c0.641,1.796,1.291,4.423,1.299,7.703c0.006,2.254-0.291,4.568-0.885,6.899 c0.446-0.098,0.882-0.147,1.303-0.147C120.411,238.816,121.156,238.992,121.816,239.342z M129.595,199.176 c-2.248-0.099-4.911-0.698-7.034-2.586c-0.707-0.628-1.315-1.368-1.819-2.212c-0.026,0.034-0.055,0.064-0.082,0.098 c-0.265,0.337-0.537,0.662-0.819,0.971c-0.047,0.052-0.095,0.099-0.143,0.15c-0.262,0.279-0.529,0.545-0.803,0.797 c-0.051,0.047-0.1,0.095-0.151,0.141c-0.3,0.269-0.606,0.518-0.916,0.751c-0.067,0.051-0.134,0.098-0.201,0.147 c-0.32,0.231-0.642,0.448-0.968,0.636c-0.124,0.071-0.246,0.138-0.368,0.202c-0.097,0.322-0.18,0.643-0.265,0.963 c-0.074,0.282-0.158,0.564-0.222,0.846c-0.091,0.397-0.161,0.79-0.234,1.185c-0.048,0.262-0.108,0.525-0.148,0.786 c-0.068,0.437-0.11,0.87-0.155,1.304c-0.022,0.215-0.057,0.432-0.073,0.646c-0.05,0.646-0.076,1.288-0.074,1.924 c0.001,0.405,0.015,0.796,0.036,1.178c0.006,0.124,0.017,0.243,0.025,0.364c0.018,0.255,0.038,0.507,0.064,0.752 c0.014,0.133,0.029,0.264,0.045,0.394c0.027,0.227,0.058,0.449,0.091,0.666c0.019,0.122,0.037,0.244,0.057,0.363 c0.039,0.23,0.082,0.452,0.126,0.669c0.018,0.09,0.036,0.185,0.054,0.273c0.065,0.299,0.133,0.587,0.205,0.861 c0.013,0.047,0.026,0.09,0.038,0.136c0.061,0.227,0.124,0.447,0.188,0.656c0.026,0.086,0.053,0.166,0.08,0.249 c0.033,0.103,0.066,0.2,0.1,0.298c2.167-1.297,4.298-2.953,6.341-4.928C125.127,205.386,127.536,202.407,129.595,199.176z M128.326,172.949c-0.076,0.135-0.155,0.269-0.234,0.404c-0.243,0.421-0.504,0.839-0.764,1.258c-0.174,0.28-0.341,0.56-0.523,0.838 c-0.302,0.46-0.627,0.914-0.952,1.369c-0.166,0.232-0.321,0.467-0.493,0.697c-0.509,0.679-1.043,1.349-1.609,2.002 c-0.247,0.285-0.499,0.567-0.757,0.845c0.019,0.024,0.033,0.055,0.053,0.08c0.183,0.232,0.353,0.48,0.499,0.752 c0.011,0.021,0.019,0.044,0.031,0.065c0.134,0.259,0.247,0.537,0.347,0.828c0.023,0.066,0.047,0.13,0.068,0.198 c0.096,0.312,0.175,0.637,0.232,0.98c0.01,0.06,0.015,0.122,0.024,0.183c0.045,0.311,0.073,0.634,0.085,0.968 c0.001,0.048,0.011,0.09,0.012,0.139c1.606-0.269,3.329-0.941,5.249-2.044c2.514-1.459,4.821-3.411,6.548-5.052L128.326,172.949z M114.26,199.032c-0.057,0.013-0.111,0.013-0.168,0.024c-0.217,0.042-0.43,0.073-0.641,0.092c-0.093,0.008-0.185,0.014-0.277,0.018 c-0.072,0.003-0.146,0.014-0.217,0.014c-0.109,0-0.213-0.018-0.32-0.024c-0.115-0.007-0.231-0.012-0.344-0.026 c-0.176-0.023-0.345-0.062-0.514-0.103c-0.098-0.024-0.199-0.041-0.294-0.072c-0.197-0.062-0.384-0.145-0.568-0.233 c-0.049-0.023-0.103-0.036-0.15-0.062c-0.27,0.289-0.545,0.575-0.802,0.871c-0.288,0.333-0.568,0.671-0.84,1.012 c-0.091,0.114-0.177,0.231-0.267,0.346c-0.178,0.229-0.356,0.457-0.527,0.689c-0.103,0.139-0.2,0.28-0.301,0.42 c-0.092,0.129-0.184,0.258-0.275,0.388l5.631,3.251C113.403,203.474,113.692,201.261,114.26,199.032z M114.31,213.823 c0.124-0.061,0.245-0.112,0.369-0.176c-0.125-0.349-0.248-0.738-0.369-1.148V213.823z M118.66,167.868 c0.025,0.145,0.05,0.29,0.073,0.44c0.036,0.227,0.067,0.46,0.096,0.697c0.018,0.15,0.038,0.298,0.054,0.453 c0.028,0.264,0.049,0.538,0.069,0.814c0.01,0.137,0.023,0.27,0.031,0.41c0.023,0.42,0.038,0.851,0.039,1.296 c0.001,0.637-0.027,1.281-0.074,1.927c-0.015,0.205-0.04,0.411-0.059,0.617c-0.043,0.448-0.094,0.898-0.16,1.349 c-0.035,0.236-0.073,0.471-0.113,0.707c-0.076,0.442-0.164,0.886-0.262,1.33c-0.049,0.222-0.094,0.444-0.148,0.666 c-0.025,0.101-0.042,0.201-0.068,0.302c0.446-0.098,0.883-0.147,1.305-0.147c0.798,0,1.544,0.176,2.203,0.526 c0.269-0.288,0.532-0.58,0.789-0.877c1.73-1.998,3.176-4.172,4.373-6.303l-8.251-4.764 C118.593,167.491,118.627,167.678,118.66,167.868z M108.646,198.389c0.247-0.285,0.499-0.567,0.757-0.845 c-0.837-1.018-1.306-2.461-1.347-4.169c-0.089,0.015-0.175,0.02-0.265,0.037c-0.162,0.032-0.326,0.072-0.49,0.111 c-0.294,0.071-0.593,0.153-0.895,0.25c-0.171,0.054-0.343,0.109-0.516,0.172c-0.323,0.116-0.652,0.252-0.983,0.396 c-0.155,0.068-0.308,0.127-0.465,0.201c-0.489,0.23-0.985,0.482-1.491,0.771l-0.101,0.058c-0.526,0.306-1.058,0.647-1.593,1.008 c-0.091,0.061-0.183,0.123-0.273,0.185c-0.483,0.334-0.969,0.693-1.457,1.07l6.718,3.879 C106.984,200.449,107.772,199.397,108.646,198.389z M115.505,165.548c-0.034,0.022-0.069,0.042-0.102,0.064 c-0.232,0.148-0.465,0.29-0.695,0.447c-0.34,0.231-0.678,0.481-1.015,0.729c-0.212,0.156-0.425,0.303-0.636,0.465 c-0.375,0.289-0.745,0.599-1.116,0.909c-0.17,0.143-0.343,0.275-0.513,0.422c-0.538,0.467-1.072,0.954-1.6,1.464 c-0.587,0.567-1.164,1.168-1.733,1.786c-0.078,0.085-0.158,0.168-0.236,0.254c-0.539,0.594-1.066,1.212-1.583,1.845 c-0.094,0.115-0.187,0.23-0.28,0.346c-0.511,0.638-1.013,1.293-1.498,1.965c-0.075,0.104-0.148,0.21-0.223,0.315 c-0.501,0.705-0.991,1.421-1.459,2.155c-0.004,0.007-0.008,0.013-0.012,0.019c0.093,0.004,0.19,0.012,0.285,0.018 c0.044,0.003,0.088,0.005,0.133,0.008c0.451,0.033,0.92,0.087,1.399,0.17c0.051,0.009,0.103,0.019,0.155,0.029 c0.19,0.035,0.381,0.075,0.573,0.119c0.059,0.014,0.119,0.027,0.179,0.042c0.233,0.057,0.466,0.121,0.699,0.194 c0.008,0.003,0.017,0.005,0.025,0.007c0.242,0.076,0.483,0.163,0.724,0.258c0.059,0.023,0.118,0.05,0.178,0.074 c0.181,0.075,0.362,0.156,0.542,0.243c0.069,0.034,0.138,0.067,0.207,0.103c0.195,0.1,0.388,0.208,0.579,0.323 c0.04,0.024,0.08,0.045,0.12,0.069c0.226,0.141,0.448,0.294,0.666,0.458c0.055,0.042,0.109,0.088,0.164,0.131 c0.163,0.129,0.324,0.265,0.482,0.408c0.066,0.06,0.131,0.121,0.196,0.183c0.159,0.154,0.314,0.316,0.466,0.486 c0.046,0.051,0.093,0.099,0.138,0.152c0.191,0.224,0.375,0.461,0.552,0.713c0.039,0.056,0.075,0.118,0.114,0.176 c0.094,0.141,0.19,0.279,0.279,0.43c1.208-1.562,2.624-2.846,4.083-3.689c0.127-0.073,0.254-0.143,0.38-0.209 c0.776-2.59,1.166-5.16,1.159-7.647c-0.006-2.353-0.367-4.329-0.803-5.872L115.505,165.548z M101.981,193.858 c0.002-0.001,0.102-0.058,0.104-0.059c2.141-1.223,4.181-1.97,6.075-2.225c0.281-2.122,1.111-4.367,2.384-6.434 c-1.876-3.934-5.692-4.743-8.784-4.677c-0.355,0.609-0.698,1.221-1.025,1.836c-0.069,0.13-0.146,0.258-0.215,0.389 c-0.426,0.819-0.825,1.643-1.2,2.47c-0.112,0.247-0.21,0.495-0.318,0.743c-0.254,0.583-0.502,1.167-0.729,1.752 c-0.121,0.311-0.229,0.621-0.342,0.932c-0.191,0.524-0.376,1.048-0.545,1.57c-0.107,0.329-0.205,0.657-0.303,0.986 c-0.151,0.507-0.293,1.014-0.423,1.52c-0.085,0.328-0.167,0.655-0.242,0.982c-0.119,0.512-0.222,1.022-0.319,1.531 c-0.028,0.145-0.055,0.291-0.081,0.437l1.888,1.09C99.279,195.597,100.642,194.635,101.981,193.858z M102.419,194.612 L102.419,194.612L102.419,194.612L102.419,194.612z M114.849,273.737c-0.185-0.518-0.368-1.111-0.54-1.762v2.019 C114.49,273.907,114.669,273.83,114.849,273.737z M114.43,259.12c-0.041,0.009-0.079,0.009-0.12,0.017v0.52 C114.352,259.478,114.384,259.299,114.43,259.12z M94.421,194.687c0.996-5.128,3.056-10.469,6.068-15.524 c2.236-3.757,4.949-7.246,7.86-10.11l-0.021-7.651l-13.181-7.61l-7.843,4.528l0.092,32.31L94.421,194.687z M133.066,327.33 l-0.158,55.485l35.941,20.75v-11.75c-1.347,0.641-2.829,0.973-4.414,0.973c-2.608,0-5.478-0.86-8.422-2.56l-0.431-0.257c0,0,0,0,0,0 c0,0,0,0-0.001,0c-4.876-2.942-9.406-7.858-12.755-13.843c-3.238-5.785-5.013-11.963-4.997-17.395l0.006-0.43 c0-0.009,0.006-0.018,0.006-0.028c0-0.011-0.005-0.021-0.005-0.032c0.13-5.728,2.266-9.951,6.016-11.893 c0,0,0.001-0.001,0.001-0.001s0.001,0,0.001,0l0,0c0,0,0,0,0,0c3.605-1.874,8.273-1.357,13.146,1.456c0,0,0,0,0.001,0.001 l0.417,0.247c0.001,0.001,0.002,0.002,0.004,0.003c0.002,0.001,0.004,0.001,0.006,0.002c4.26,2.571,8.251,6.643,11.421,11.615 v-11.681L133.066,327.33z M151.395,185.765l99.934-57.697l5.438,3.099l0.032,11.179l-106.014,61.207l-0.05-17.7 c0.073,0.019,0.149,0.03,0.225,0.03C151.11,185.882,151.261,185.843,151.395,185.765z M202.108,158.594 c0.002,0.587,0.256,1.07,0.698,1.323c0.204,0.118,0.43,0.176,0.665,0.176c0.274,0,0.561-0.08,0.836-0.239l45.918-26.511 c0.767-0.443,1.323-1.406,1.321-2.29c-0.001-0.276-0.062-0.526-0.168-0.743c-0.007-0.014-0.009-0.03-0.016-0.043 c-0.119-0.226-0.293-0.41-0.514-0.537c-0.403-0.232-0.89-0.221-1.36,0.001c-0.047,0.022-0.094,0.035-0.141,0.062l0,0l-45.918,26.511 C202.673,156.74,202.106,157.725,202.108,158.594z M152.234,186.649L152.234,186.649l0.035,12.402 c0.001,0.311,0.167,0.598,0.437,0.753c0.134,0.078,0.285,0.117,0.435,0.117c0.15,0,0.301-0.039,0.436-0.117l35.286-20.373 c0.271-0.156,0.437-0.445,0.436-0.758l-0.018-6.201c-0.001-0.311-0.167-0.598-0.437-0.753c-0.27-0.155-0.601-0.155-0.871,0 l-15.837,9.144l-0.014-4.695c-0.001-0.311-0.167-0.598-0.437-0.753c-0.135-0.078-0.285-0.117-0.435-0.117 c-0.15,0-0.301,0.039-0.435,0.117l-6.641,3.835l-11.503,6.641C152.399,186.048,152.233,186.337,152.234,186.649L152.234,186.649z M168.848,242.492l-18.847,10.881l0.158,55.67l18.689-10.79v-2.592l-15.132,8.736c-0.135,0.078-0.286,0.117-0.436,0.117 c-0.15,0-0.301-0.038-0.435-0.116c-0.27-0.155-0.436-0.442-0.437-0.753l-0.138-48.484c-0.001-0.312,0.165-0.601,0.436-0.758 l16.141-9.319V242.492z M162.439,218.987l-2.168-1.251l-9.779,5.683l2.168,1.251L162.439,218.987z M262.457,147.52l-2.167-1.251 l-109.798,63.807l2.168,1.252L262.457,147.52z M1.744,368.912l110.822,63.985v-52.415l-9.281-5.378c-0.001,0-0.001,0-0.002-0.001 l-52.812-30.598L1.744,316.272V368.912z M112.566,434.911L1.744,370.926v8.549l110.822,63.985V434.911z M20.573,185.528 l-0.017,6.031l73.23,42.279l0.017-6.031L20.573,185.528z M20.506,209.327l0.044-15.757l73.23,42.279l-0.045,15.757L20.506,209.327z M23.861,203.042l18.615,10.748c0.137,0.079,0.288,0.117,0.435,0.117c0.301,0,0.594-0.157,0.756-0.436 c0.241-0.417,0.098-0.95-0.319-1.191l-18.615-10.748c-0.417-0.241-0.95-0.098-1.191,0.319 C23.301,202.268,23.444,202.801,23.861,203.042z M20.573,224.704l-0.017,6.031l10.627,6.135l62.603,36.144l0.017-6.031 L20.573,224.704z M20.506,248.502l0.044-15.757l73.23,42.279l-0.045,15.757L20.506,248.502z M23.861,242.217l18.615,10.748 c0.137,0.079,0.288,0.117,0.435,0.117c0.301,0,0.594-0.157,0.756-0.436c0.241-0.417,0.098-0.951-0.319-1.191l-18.615-10.748 c-0.417-0.241-0.95-0.098-1.191,0.319C23.301,241.442,23.444,241.975,23.861,242.217z M170.592,239.671v64.487v42.962v85.508 l7.974-4.604V244.779c0-0.312,0.166-0.599,0.436-0.755l168.173-97.095c0.271-0.156,0.602-0.156,0.872,0 c0.27,0.156,0.436,0.444,0.436,0.755v182.239l7.975-4.604V132.362L170.592,239.671z M346.74,330.93V149.195L180.31,245.282v181.735 L346.74,330.93z"/></g><g id="change5_1"><path fill="#5284ff" d="M114.756,257.214c-0.151,0.055-0.299,0.096-0.446,0.137V243.41c0.784-0.808,1.621-1.484,2.472-1.975 c0,0,0,0,0,0c0.201-0.116,0.402-0.221,0.604-0.315c0.2-0.095,0.399-0.178,0.593-0.249c0.047-0.017,0.091-0.027,0.137-0.042 c0.146-0.05,0.292-0.098,0.435-0.134c0.064-0.016,0.125-0.023,0.187-0.036c0.121-0.025,0.243-0.053,0.36-0.069 c0.079-0.01,0.155-0.01,0.233-0.016c0.096-0.007,0.194-0.018,0.287-0.018c0.121,0,0.236,0.014,0.352,0.026 c0.048,0.005,0.098,0.004,0.145,0.012c0.149,0.023,0.291,0.058,0.43,0.102c0.011,0.004,0.023,0.005,0.035,0.009 c0.301,0.099,0.577,0.248,0.825,0.447c0.877,0.696,1.363,2.008,1.368,3.695c0,0.238-0.009,0.478-0.026,0.72 c-0.045,0.61-0.148,1.248-0.306,1.897c-0.1,0.41-0.221,0.822-0.362,1.233c-0.423,1.235-1.024,2.465-1.772,3.613 c-1.221,1.884-2.766,3.424-4.35,4.339c-0.203,0.117-0.403,0.222-0.605,0.315C115.15,257.059,114.951,257.143,114.756,257.214z M115.864,223.466c0.172-0.099,0.346-0.197,0.517-0.291c2.024-1.115,4.024-1.904,5.959-2.352l-0.029-10.354 c-0.048,0.041-0.096,0.079-0.143,0.12c-0.143,0.125-0.288,0.24-0.431,0.362c-0.392,0.331-0.785,0.652-1.181,0.961 c-0.182,0.142-0.364,0.28-0.547,0.417c-0.381,0.286-0.764,0.56-1.149,0.825c-0.169,0.116-0.336,0.236-0.506,0.347 c-0.546,0.362-1.095,0.708-1.647,1.027c-0.172,0.1-0.346,0.196-0.518,0.291c-0.539,0.297-1.076,0.567-1.611,0.817 c-0.089,0.042-0.178,0.079-0.267,0.12v8.672C114.826,224.09,115.343,223.766,115.864,223.466z M115.787,196.559 c1.583-0.914,3.129-2.455,4.35-4.339c0.997-1.532,1.734-3.208,2.133-4.845c0.158-0.649,0.26-1.287,0.306-1.898 c0.018-0.24,0.027-0.482,0.026-0.719c-0.005-1.687-0.491-2.999-1.369-3.696c-0.247-0.199-0.523-0.347-0.823-0.447 c-0.008-0.002-0.017-0.003-0.024-0.006c-0.142-0.045-0.289-0.081-0.441-0.105c-0.039-0.006-0.081-0.005-0.12-0.01 c-0.124-0.014-0.248-0.027-0.378-0.028c-0.078,0-0.162,0.01-0.242,0.015c-0.092,0.006-0.183,0.006-0.278,0.019 c-0.094,0.012-0.193,0.036-0.289,0.055c-0.086,0.017-0.17,0.028-0.258,0.05c-0.117,0.029-0.237,0.072-0.357,0.11 c-0.072,0.023-0.142,0.04-0.215,0.067c-0.194,0.071-0.392,0.153-0.592,0.248c-0.201,0.093-0.402,0.199-0.603,0.316c0,0,0,0,0,0 c-0.794,0.458-1.576,1.072-2.313,1.807c-0.009,0.01-0.018,0.02-0.028,0.03c-0.358,0.36-0.706,0.746-1.038,1.159 c-0.341,0.423-0.666,0.872-0.97,1.343c-0.089,0.136-0.169,0.277-0.254,0.416c-0.082,0.134-0.167,0.265-0.245,0.401 c-0.948,1.657-1.595,3.449-1.847,5.111c-0.042,0.277-0.073,0.551-0.092,0.819c-0.019,0.246-0.029,0.485-0.028,0.721 c0.005,1.685,0.491,2.995,1.369,3.692c0.977,0.782,2.403,0.793,4.017,0.031C115.381,196.782,115.582,196.677,115.787,196.559z M110.087,167.436c1.216-1.068,2.46-2.02,3.72-2.869l-3.734-2.156L110.087,167.436z M122.517,283.566l-0.037-13.008 c-1.818,1.597-3.697,2.958-5.604,4.059l-0.513,0.289c-0.002,0.001-0.003,0.002-0.005,0.003c-0.54,0.297-1.077,0.568-1.613,0.818 c-0.146,0.068-0.29,0.126-0.436,0.19v12.387L122.517,283.566z M168.054,378.551c-0.192-0.102-0.387-0.193-0.577-0.302 c-0.001,0-0.002-0.001-0.002-0.001c-0.007-0.004-0.101-0.058-0.102-0.059c-0.44-0.255-0.871-0.533-1.299-0.823 c-0.021-0.015-0.041-0.03-0.062-0.045c-0.401-0.274-0.796-0.565-1.185-0.87c-0.103-0.08-0.203-0.164-0.305-0.246 c-0.297-0.241-0.59-0.49-0.88-0.747c-0.13-0.116-0.261-0.234-0.389-0.353c-0.091-0.085-0.186-0.163-0.276-0.251 c-0.021,0.059-0.052,0.11-0.075,0.167c-0.051,0.124-0.105,0.245-0.164,0.361c-0.045,0.088-0.092,0.172-0.142,0.255 c-0.064,0.109-0.131,0.213-0.202,0.313c-0.055,0.078-0.113,0.154-0.173,0.227c-0.076,0.093-0.156,0.181-0.239,0.266 c-0.066,0.067-0.132,0.133-0.202,0.195c-0.088,0.078-0.181,0.148-0.275,0.217c-0.046,0.034-0.088,0.075-0.135,0.107 c0.016,0.051,0.031,0.103,0.047,0.154c0.188,0.596,0.398,1.181,0.625,1.755c0.04,0.102,0.082,0.202,0.123,0.303 c0.236,0.578,0.487,1.146,0.753,1.698c0.034,0.07,0.07,0.139,0.104,0.208c0.28,0.569,0.571,1.127,0.873,1.664 c0.006,0.01,0.011,0.02,0.017,0.031c0.308,0.545,0.625,1.069,0.946,1.577c0.04,0.064,0.08,0.129,0.12,0.192 c0.306,0.479,0.615,0.938,0.923,1.38c0.054,0.077,0.108,0.155,0.162,0.231c0.303,0.428,0.605,0.839,0.901,1.228 c0.052,0.069,0.104,0.135,0.155,0.202c0.298,0.387,0.592,0.758,0.873,1.1c0.035,0.042,0.068,0.081,0.102,0.122 c0.263,0.318,0.516,0.614,0.756,0.889v-10.73C168.581,378.838,168.319,378.692,168.054,378.551z M154.377,385.781 c-0.074-0.438-0.142-0.888-0.2-1.346c-0.014-0.107-0.024-0.215-0.037-0.323c-0.043-0.366-0.079-0.735-0.109-1.107 c-0.01-0.136-0.021-0.271-0.03-0.407c-0.03-0.478-0.051-0.958-0.051-1.437c0-0.558,0.027-1.092,0.072-1.61 c0.015-0.167,0.04-0.323,0.059-0.485c0.04-0.343,0.085-0.681,0.145-1.004c0.034-0.181,0.076-0.353,0.116-0.527 c0.066-0.288,0.138-0.57,0.221-0.84c0.052-0.17,0.109-0.335,0.168-0.499c0.042-0.116,0.074-0.242,0.12-0.355 c-0.005-0.004-0.01-0.01-0.016-0.014c-0.302-0.239-0.595-0.503-0.882-0.781c-0.058-0.056-0.116-0.112-0.174-0.17 c-0.279-0.28-0.55-0.574-0.81-0.886c-0.041-0.05-0.08-0.101-0.121-0.151c-0.24-0.297-0.472-0.606-0.693-0.927 c-0.034-0.049-0.07-0.096-0.103-0.146c-0.233-0.347-0.451-0.709-0.658-1.081c-0.019-0.035-0.043-0.066-0.062-0.101 c-0.052-0.004-0.105-0.011-0.156-0.014c-0.096-0.005-0.191-0.008-0.286-0.009c-0.126-0.002-0.25-0.001-0.372,0.004 c-0.092,0.004-0.183,0.009-0.273,0.016c-0.12,0.01-0.236,0.024-0.353,0.04c-0.086,0.012-0.173,0.023-0.256,0.039 c-0.116,0.021-0.229,0.047-0.341,0.074c-0.078,0.019-0.158,0.036-0.234,0.058c-0.118,0.034-0.232,0.073-0.345,0.112 c-0.065,0.023-0.133,0.043-0.197,0.068c-0.14,0.055-0.274,0.115-0.408,0.179c-0.034,0.016-0.069,0.029-0.102,0.046 c-0.164,0.082-0.324,0.171-0.478,0.266c-0.048,0.029-0.092,0.062-0.139,0.092c-0.106,0.068-0.211,0.137-0.311,0.211 c-0.057,0.041-0.111,0.086-0.166,0.129c-0.087,0.067-0.173,0.134-0.255,0.205c-0.056,0.048-0.111,0.098-0.166,0.148 c-0.077,0.07-0.154,0.14-0.228,0.212c-0.054,0.053-0.107,0.107-0.159,0.161c-0.071,0.073-0.141,0.147-0.208,0.222 c-0.051,0.056-0.1,0.112-0.149,0.169c-0.065,0.076-0.128,0.153-0.191,0.231c-0.046,0.058-0.093,0.116-0.138,0.175 c-0.061,0.079-0.12,0.16-0.177,0.24c-0.042,0.058-0.085,0.116-0.125,0.175c-0.058,0.084-0.112,0.168-0.167,0.253 c-0.037,0.057-0.075,0.113-0.111,0.171c-0.055,0.089-0.108,0.179-0.161,0.268c-0.031,0.052-0.063,0.104-0.092,0.156 c-0.002,0.003-0.004,0.007-0.006,0.01c2.746,4.784,6.263,8.815,10.078,11.577c-0.012-0.055-0.021-0.118-0.033-0.174 c-0.071-0.337-0.137-0.684-0.201-1.041C154.41,385.962,154.393,385.874,154.377,385.781z M159.722,377.563 c-0.076,0.009-0.158,0.002-0.235,0.007c-0.103,0.007-0.201,0.027-0.306,0.027c-0.049,0-0.101-0.011-0.151-0.012 c-0.103-0.003-0.206-0.014-0.31-0.024c-0.162-0.016-0.325-0.036-0.49-0.068c-0.11-0.021-0.22-0.048-0.331-0.075 c-0.163-0.041-0.326-0.09-0.491-0.146c-0.116-0.039-0.233-0.082-0.35-0.129c-0.163-0.065-0.326-0.141-0.49-0.221 c-0.075-0.036-0.149-0.061-0.224-0.1c-0.43,1.207-0.649,2.662-0.649,4.339c-0.001,2.717,0.571,5.519,1.088,7.494l0.102,0.061 c3.857,2.227,7.507,2.87,10.421,1.864C164.921,387.805,161.46,383.105,159.722,377.563z M141.296,357.956 c0.423,0.126,0.863,0.269,1.327,0.445c0.007,0.002,0.014,0.004,0.02,0.007c0.445,0.169,0.91,0.373,1.384,0.595 c0.068,0.032,0.135,0.063,0.202,0.095c0.432,0.208,0.87,0.432,1.319,0.689c0.001,0.001,0.002,0.001,0.003,0.002 c0.013,0.007,0.025,0.016,0.037,0.023c0.013,0.008,0.027,0.014,0.04,0.021c0.432,0.25,0.855,0.522,1.274,0.805 c0.084,0.057,0.164,0.119,0.248,0.176c0.328,0.229,0.653,0.465,0.973,0.714c0.147,0.114,0.292,0.235,0.438,0.353 c0.254,0.207,0.504,0.42,0.751,0.639c0.152,0.135,0.304,0.272,0.454,0.412c0.087,0.081,0.177,0.156,0.263,0.238 c0.022-0.059,0.052-0.11,0.076-0.167c0.051-0.124,0.104-0.244,0.163-0.36c0.045-0.089,0.092-0.173,0.142-0.256 c0.063-0.108,0.13-0.212,0.201-0.312c0.055-0.078,0.113-0.155,0.174-0.228c0.075-0.093,0.155-0.18,0.238-0.265 c0.066-0.068,0.133-0.134,0.203-0.196c0.088-0.078,0.181-0.148,0.275-0.217c0.047-0.034,0.088-0.075,0.136-0.107 c-0.016-0.05-0.03-0.101-0.046-0.151c-0.189-0.597-0.399-1.184-0.626-1.76c-0.039-0.099-0.08-0.197-0.12-0.295 c-0.237-0.579-0.488-1.149-0.755-1.702c-0.034-0.07-0.069-0.137-0.103-0.206c-0.28-0.57-0.571-1.128-0.874-1.667 c-0.005-0.009-0.01-0.019-0.016-0.029c-0.307-0.544-0.624-1.068-0.944-1.576c-0.041-0.065-0.081-0.131-0.122-0.196 c-0.306-0.478-0.614-0.937-0.922-1.378c-0.054-0.078-0.109-0.157-0.163-0.234c-0.302-0.427-0.603-0.836-0.898-1.224 c-0.053-0.071-0.106-0.139-0.159-0.208c-0.297-0.385-0.589-0.754-0.869-1.095c-0.037-0.045-0.072-0.087-0.109-0.131 c-0.287-0.346-0.564-0.673-0.823-0.969c-0.004-0.005-0.009-0.011-0.014-0.016c-2.648,1.677-4.215,4.936-4.466,9.302 c0.035,0.007,0.069,0.018,0.104,0.025c0.407,0.083,0.846,0.185,1.321,0.32C141.12,357.901,141.208,357.929,141.296,357.956z M161.63,372.473c0.004-1.474-0.451-3.182-1.28-4.807c-0.706-1.39-1.654-2.654-2.697-3.618c-0.347-0.321-0.706-0.608-1.069-0.856 c-0.165-0.114-0.329-0.216-0.495-0.312c-0.001,0-0.003-0.001-0.004-0.002c-0.26-0.15-0.514-0.268-0.764-0.37 c-0.067-0.027-0.133-0.052-0.199-0.076c-0.217-0.078-0.429-0.141-0.634-0.182c-0.032-0.007-0.067-0.018-0.099-0.024 c-0.234-0.041-0.457-0.053-0.671-0.044c-0.043,0.001-0.085,0.006-0.127,0.01c-0.21,0.019-0.412,0.055-0.596,0.126 c-0.909,0.343-1.473,1.298-1.593,2.69c-0.017,0.178-0.023,0.358-0.024,0.545c-0.004,1.479,0.451,3.186,1.28,4.807 c0.706,1.391,1.655,2.655,2.699,3.619c0.348,0.321,0.707,0.609,1.069,0.857c0.165,0.113,0.328,0.217,0.496,0.314 c1.171,0.676,2.267,0.875,3.089,0.56c0.796-0.3,1.327-1.068,1.529-2.188c0.029-0.16,0.051-0.327,0.066-0.501 C161.622,372.842,161.63,372.661,161.63,372.473z M153.285,360.462c0.176-0.022,0.356-0.033,0.538-0.033 c0.892,0,1.857,0.261,2.832,0.772c0.015-0.042,0.035-0.079,0.05-0.122c0.036-0.107,0.066-0.221,0.098-0.331 c0.077-0.256,0.147-0.521,0.206-0.797c0.029-0.137,0.056-0.276,0.081-0.417c0.05-0.282,0.09-0.576,0.122-0.877 c0.015-0.136,0.033-0.268,0.044-0.408c0.036-0.443,0.059-0.9,0.059-1.38c0-0.35-0.01-0.703-0.028-1.054 c-0.006-0.123-0.018-0.246-0.026-0.369c-0.015-0.227-0.03-0.455-0.051-0.681c-0.014-0.145-0.032-0.287-0.048-0.431 c-0.022-0.202-0.043-0.405-0.07-0.605c-0.019-0.15-0.043-0.297-0.065-0.445c-0.028-0.189-0.055-0.379-0.086-0.563 c-0.025-0.15-0.052-0.297-0.078-0.444c-0.031-0.177-0.063-0.353-0.096-0.525c-0.029-0.146-0.058-0.288-0.088-0.43 c-0.035-0.166-0.069-0.332-0.105-0.492c-0.031-0.138-0.061-0.271-0.092-0.404c-0.036-0.154-0.072-0.307-0.108-0.454 c-0.032-0.128-0.063-0.252-0.094-0.374c-0.02-0.078-0.04-0.152-0.059-0.228l-0.096-0.056c-3.861-2.229-7.512-2.874-10.424-1.868 C148.088,350.221,151.55,354.923,153.285,360.462z M159.06,356.869c0,2.056-0.303,3.841-0.901,5.318 c1.359,1.072,2.582,2.552,3.516,4.256c0.05,0.004,0.101,0.01,0.151,0.013c0.104,0.005,0.205,0.008,0.307,0.009 c0.114,0.001,0.226,0,0.337-0.003c0.107-0.004,0.213-0.01,0.317-0.019c0.099-0.008,0.196-0.02,0.292-0.033 c0.108-0.015,0.216-0.029,0.32-0.049c0.086-0.016,0.17-0.036,0.254-0.055c0.108-0.025,0.216-0.049,0.32-0.079 c0.074-0.021,0.145-0.047,0.217-0.071c0.109-0.035,0.218-0.07,0.322-0.111c0.053-0.02,0.103-0.045,0.154-0.068 c0.388-0.165,0.75-0.367,1.087-0.597c0.052-0.035,0.106-0.069,0.156-0.106c0.086-0.062,0.167-0.128,0.249-0.194 c0.058-0.046,0.117-0.091,0.173-0.138c0.076-0.065,0.149-0.132,0.223-0.199c0.057-0.053,0.115-0.105,0.17-0.159 c0.069-0.067,0.136-0.136,0.202-0.205c0.055-0.058,0.111-0.116,0.164-0.176c0.063-0.069,0.124-0.139,0.184-0.209 c0.053-0.063,0.106-0.126,0.157-0.19c0.056-0.069,0.111-0.139,0.165-0.209c0.052-0.068,0.101-0.137,0.151-0.205 c0.05-0.069,0.099-0.137,0.147-0.207c0.051-0.073,0.098-0.147,0.146-0.221c0.042-0.065,0.086-0.13,0.127-0.196 c0.054-0.087,0.105-0.174,0.156-0.262c0.031-0.053,0.063-0.105,0.093-0.157c0.002-0.004,0.004-0.008,0.007-0.012 c-2.742-4.781-6.259-8.813-10.076-11.578C158.736,352.578,159.061,354.738,159.06,356.869z M162.505,368.213 c0.568,1.455,0.872,2.931,0.869,4.264c0,0.135-0.003,0.267-0.01,0.395l0.052-0.049c1.523,1.59,3.145,2.878,4.874,3.88 c0.186,0.107,0.373,0.196,0.56,0.295v-12.181C167.514,366.499,165.466,368.12,162.505,368.213z M163.004,373.143l-0.221,0.281l0,0 l0.289-0.274L163.004,373.143z M150.502,369.813c-0.568-1.453-0.871-2.929-0.868-4.265c0-0.1,0.002-0.199,0.006-0.295 c-0.036-0.038-0.071-0.075-0.107-0.112c-1.49-1.555-3.077-2.81-4.853-3.842c-1.948-1.119-3.736-1.696-5.103-1.993 c0.098,4.581,1.52,9.704,4.049,14.626C144.923,372.026,147.116,369.919,150.502,369.813z M187.542,173.983l-15.838,9.144 c-0.269,0.155-0.601,0.156-0.871,0c-0.27-0.155-0.436-0.442-0.437-0.753l-0.013-4.696l-16.404,9.471l0.03,10.392l33.545-19.367 L187.542,173.983z M250.215,131.297c0.012-0.001,0.021-0.003,0.029-0.006l-0.461-0.743l0,0L250.215,131.297z M204.301,157.815 c-0.042,0.024-0.085,0.059-0.126,0.1l45.177-26.082c0.044-0.025,0.088-0.061,0.131-0.105L204.301,157.815z M154.017,255.661 l0.131,46.473l14.701-8.487v-46.548L154.017,255.661z M168.146,233.612l109.798-63.808l-9.777-5.644l-4.754,2.763l7.733,4.464 c0.27,0.156,0.435,0.443,0.436,0.754c0,0.311-0.165,0.598-0.434,0.755l-7.065,4.106c-0.136,0.078-0.287,0.118-0.438,0.118 c-0.15,0-0.301-0.039-0.436-0.117l-8.599-4.965l-14.068,8.175l7.733,4.465c0.269,0.155,0.435,0.443,0.436,0.754 c0,0.311-0.165,0.599-0.434,0.755l-7.066,4.106c-0.135,0.078-0.287,0.118-0.438,0.118c-0.151,0-0.301-0.039-0.436-0.117 l-8.599-4.965l-14.068,8.175l7.733,4.465c0.27,0.156,0.435,0.443,0.436,0.754c0,0.311-0.165,0.599-0.434,0.755l-7.065,4.106 c-0.135,0.078-0.287,0.118-0.438,0.118s-0.301-0.039-0.436-0.117l-8.6-4.965l-14.067,8.175l7.733,4.465 c0.269,0.156,0.435,0.443,0.436,0.754c0,0.311-0.165,0.599-0.434,0.755l-7.066,4.106c-0.136,0.078-0.287,0.118-0.438,0.118 c-0.15,0-0.301-0.039-0.436-0.117l-8.599-4.965l-14.068,8.175l7.733,4.465c0.27,0.156,0.436,0.443,0.436,0.754 c0.001,0.311-0.164,0.598-0.434,0.755l-7.067,4.106c-0.135,0.078-0.287,0.118-0.438,0.118c-0.151,0-0.302-0.039-0.436-0.117 l-11.051-6.381c-0.27-0.156-0.436-0.443-0.436-0.754c-0.001-0.311,0.164-0.599,0.434-0.755l3.725-2.164l-0.213-0.123l-9.78,5.683 L168.146,233.612z M168.146,220.269l-13.745-7.936l109.798-63.808l13.745,7.936L168.146,220.269z M180.096,211.964 c0-0.311-0.166-0.598-0.436-0.754l-11.051-6.381c-0.271-0.156-0.603-0.155-0.874,0.001l-7.067,4.107 c-0.269,0.156-0.435,0.444-0.434,0.755c0,0.311,0.166,0.598,0.436,0.754l11.051,6.381c0.134,0.078,0.285,0.117,0.436,0.117 c0.151,0,0.303-0.04,0.438-0.118l7.067-4.107C179.932,212.563,180.097,212.275,180.096,211.964z M202.968,198.672 c-0.001-0.311-0.167-0.598-0.436-0.754l-11.051-6.381c-0.271-0.156-0.604-0.155-0.874,0.001l-7.066,4.106 c-0.269,0.156-0.434,0.444-0.434,0.755c0.001,0.311,0.167,0.598,0.436,0.754l11.051,6.381c0.135,0.078,0.286,0.117,0.436,0.117 c0.152,0,0.303-0.039,0.438-0.118l7.066-4.106C202.803,199.271,202.968,198.983,202.968,198.672z M225.839,185.38 c0-0.311-0.166-0.598-0.436-0.754l-11.051-6.381c-0.271-0.156-0.603-0.155-0.874,0.001l-7.066,4.106 c-0.269,0.156-0.435,0.444-0.434,0.755c0,0.311,0.166,0.598,0.436,0.754l11.051,6.38c0.135,0.078,0.285,0.117,0.436,0.117 s0.303-0.04,0.438-0.118l7.065-4.106C225.674,185.979,225.84,185.692,225.839,185.38z M248.711,172.089 c0-0.311-0.167-0.598-0.436-0.754l-11.051-6.381c-0.271-0.156-0.604-0.155-0.874,0.001l-7.065,4.106 c-0.269,0.156-0.435,0.444-0.434,0.755c0,0.311,0.166,0.598,0.436,0.754l11.051,6.381c0.135,0.078,0.285,0.117,0.436,0.117 c0.151,0,0.303-0.04,0.438-0.118l7.066-4.106C248.546,172.688,248.712,172.401,248.711,172.089z M264.083,163.659l7.065-4.106 c0.269-0.157,0.435-0.444,0.434-0.755c0-0.311-0.166-0.598-0.436-0.754l-11.051-6.38c-0.271-0.156-0.603-0.156-0.874,0.001 l-7.066,4.106c-0.269,0.156-0.434,0.444-0.434,0.755c0,0.311,0.167,0.598,0.436,0.754l11.051,6.381 c0.135,0.078,0.286,0.117,0.436,0.117C263.796,163.777,263.948,163.737,264.083,163.659z M170.592,489.068v8.55l185.866-107.309 v-8.55L170.592,489.068z M170.592,434.642v52.413l185.866-107.309v-52.413L170.592,434.642z"/></g><g id="change1_2"><path fill="#240960" d="M152.269,199.051c0.001,0.311,0.167,0.598,0.437,0.753c0.134,0.078,0.285,0.117,0.435,0.117 c0.15,0,0.301-0.039,0.436-0.117l35.286-20.373c0.271-0.156,0.437-0.445,0.436-0.758l-0.018-6.201 c-0.001-0.311-0.167-0.598-0.437-0.753c-0.27-0.155-0.601-0.155-0.871,0l-15.837,9.144l-0.014-4.695 c-0.001-0.311-0.167-0.598-0.437-0.753c-0.135-0.078-0.285-0.117-0.435-0.117c-0.15,0-0.301,0.039-0.435,0.117l-6.641,3.835 l-11.503,6.641c-0.271,0.156-0.437,0.445-0.436,0.758v0l0,0L152.269,199.051z M153.979,187.15l16.404-9.471l0.013,4.696 c0.001,0.311,0.167,0.598,0.437,0.753c0.27,0.156,0.602,0.155,0.871,0l15.838-9.144l0.012,4.191l-33.545,19.367L153.979,187.15z M202.806,159.918c0.204,0.118,0.43,0.176,0.665,0.176c0.274,0,0.561-0.08,0.836-0.239l45.918-26.511 c0.767-0.443,1.323-1.406,1.321-2.29c-0.001-0.276-0.062-0.526-0.168-0.743c-0.007-0.014-0.009-0.03-0.016-0.043 c-0.119-0.226-0.293-0.41-0.514-0.537c-0.403-0.232-0.89-0.221-1.36,0.001c-0.047,0.022-0.094,0.035-0.141,0.062l0,0l-45.918,26.511 c-0.755,0.436-1.323,1.42-1.321,2.29C202.11,159.182,202.364,159.664,202.806,159.918z M249.352,131.834l-45.177,26.082 c0.041-0.041,0.084-0.076,0.126-0.1l45.183-26.086C249.44,131.772,249.396,131.808,249.352,131.834z M250.244,131.291 c-0.007,0.002-0.017,0.005-0.029,0.006l-0.432-0.748l0,0L250.244,131.291z M146.824,262.336v50.149c0,0.417-0.338,0.754-0.754,0.754 c-0.417,0-0.754-0.337-0.754-0.754v-50.149c0-0.417,0.338-0.754,0.754-0.754C146.486,261.582,146.824,261.92,146.824,262.336z M144.007,267.214v50.149c0,0.417-0.337,0.754-0.754,0.754c-0.416,0-0.754-0.338-0.754-0.754v-50.149 c0-0.417,0.338-0.754,0.754-0.754C143.67,266.46,144.007,266.798,144.007,267.214z M202.532,197.919l-11.051-6.381 c-0.271-0.156-0.604-0.155-0.874,0.001l-7.066,4.106c-0.269,0.156-0.434,0.444-0.434,0.755c0.001,0.311,0.167,0.598,0.436,0.754 l11.051,6.381c0.135,0.078,0.286,0.117,0.436,0.117c0.152,0,0.303-0.039,0.438-0.118l7.066-4.106 c0.269-0.156,0.434-0.444,0.434-0.755C202.967,198.361,202.801,198.074,202.532,197.919z M200.356,198.676l-5.327,3.096l-9.31-5.375 l5.327-3.096L200.356,198.676z M248.275,171.335l-11.051-6.381c-0.271-0.156-0.604-0.155-0.874,0.001l-7.065,4.106 c-0.269,0.156-0.435,0.444-0.434,0.755c0,0.311,0.166,0.598,0.436,0.754l11.051,6.381c0.135,0.078,0.285,0.117,0.436,0.117 c0.151,0,0.303-0.04,0.438-0.118l7.066-4.106c0.269-0.156,0.434-0.444,0.434-0.755C248.711,171.778,248.544,171.491,248.275,171.335 z M246.1,172.093l-5.328,3.096l-9.31-5.375l5.327-3.096L246.1,172.093z M179.66,211.21l-11.051-6.381 c-0.271-0.156-0.603-0.155-0.874,0.001l-7.067,4.107c-0.269,0.156-0.435,0.444-0.434,0.755c0,0.311,0.166,0.598,0.436,0.754 l11.051,6.381c0.134,0.078,0.285,0.117,0.436,0.117c0.151,0,0.303-0.04,0.438-0.118l7.067-4.107 c0.269-0.156,0.435-0.444,0.434-0.755C180.096,211.653,179.93,211.365,179.66,211.21z M177.485,211.967l-5.329,3.097l-9.31-5.375 l5.329-3.097L177.485,211.967z M271.149,159.553c0.269-0.157,0.435-0.444,0.434-0.755c0-0.311-0.166-0.598-0.436-0.754l-11.051-6.38 c-0.271-0.156-0.603-0.156-0.874,0.001l-7.066,4.106c-0.269,0.156-0.434,0.444-0.434,0.755c0,0.311,0.167,0.598,0.436,0.754 l11.051,6.381c0.135,0.078,0.286,0.117,0.436,0.117c0.151,0,0.303-0.04,0.438-0.118L271.149,159.553z M259.661,153.426l9.31,5.375 l-5.327,3.096l-9.31-5.375L259.661,153.426z M225.403,184.627l-11.051-6.381c-0.271-0.156-0.603-0.155-0.874,0.001l-7.066,4.106 c-0.269,0.156-0.435,0.444-0.434,0.755c0,0.311,0.166,0.598,0.436,0.754l11.051,6.38c0.135,0.078,0.285,0.117,0.436,0.117 s0.303-0.04,0.438-0.118l7.065-4.106c0.269-0.156,0.435-0.444,0.434-0.755C225.839,185.07,225.673,184.782,225.403,184.627z M223.228,185.384l-5.328,3.096l-9.31-5.375l5.328-3.096L223.228,185.384z M57.394,119.265c-0.27,0.156-0.436,0.444-0.436,0.755 s0.166,0.599,0.436,0.755l93.129,53.768c0.135,0.078,0.285,0.117,0.436,0.117c0.151,0,0.301-0.039,0.436-0.117L338.329,66.617 c0.27-0.156,0.436-0.444,0.436-0.755s-0.166-0.599-0.436-0.755L245.2,11.338c-0.27-0.156-0.602-0.156-0.872,0L57.394,119.265z M336.15,65.862l-185.191,106.92L59.574,120.02L244.764,13.1L336.15,65.862z M19.196,210.585l74.971,43.285 c0.135,0.078,0.286,0.117,0.436,0.117s0.3-0.039,0.435-0.117c0.27-0.155,0.436-0.442,0.437-0.753l0.05-17.767l0.023-8.041 c0.001-0.312-0.165-0.601-0.436-0.758l-74.971-43.284c-0.269-0.156-0.601-0.156-0.871-0.001c-0.27,0.155-0.436,0.442-0.437,0.753 l-0.022,8.041l-0.051,17.768C18.76,210.14,18.926,210.429,19.196,210.585z M20.551,193.57l73.23,42.279l-0.045,15.757 l-73.229-42.279L20.551,193.57z M93.786,233.838l-73.23-42.279l0.017-6.031l73.229,42.279L93.786,233.838z M23.861,203.042 c-0.417-0.241-0.56-0.774-0.319-1.191c0.241-0.417,0.775-0.56,1.191-0.319l18.615,10.748c0.417,0.241,0.56,0.774,0.319,1.191 c-0.162,0.28-0.455,0.436-0.756,0.436c-0.148,0-0.298-0.038-0.435-0.117L23.861,203.042z M94.167,293.044 c0.135,0.078,0.286,0.117,0.436,0.117s0.3-0.039,0.435-0.116c0.27-0.155,0.436-0.442,0.437-0.753l0.05-17.767l0.023-8.041 c0.001-0.312-0.165-0.601-0.436-0.758L20.141,222.44c-0.269-0.156-0.601-0.156-0.871,0c-0.27,0.155-0.436,0.442-0.437,0.753 l-0.022,8.041l-0.051,17.767c-0.001,0.312,0.165,0.601,0.436,0.758L94.167,293.044z M93.786,273.013L31.183,236.87l-10.627-6.135 l0.017-6.031l73.229,42.279L93.786,273.013z M20.551,232.745l73.23,42.279l-0.045,15.757l-73.229-42.279L20.551,232.745z M23.861,242.217c-0.417-0.241-0.56-0.775-0.319-1.191c0.241-0.417,0.775-0.561,1.191-0.319l18.615,10.748 c0.417,0.24,0.56,0.774,0.319,1.191c-0.162,0.279-0.455,0.436-0.756,0.436c-0.148,0-0.298-0.038-0.435-0.117L23.861,242.217z M357.766,130.097c-0.27-0.156-0.602-0.156-0.872,0l-73.52,42.447l-0.497-62.689l74.889-43.237c0.27-0.156,0.436-0.444,0.436-0.755 s-0.166-0.599-0.436-0.755L245.2,0.117c-0.27-0.156-0.602-0.156-0.872,0L37.957,119.265c-0.071,0.04-0.133,0.091-0.188,0.148 c-0.008,0.008-0.013,0.018-0.02,0.026c-0.058,0.064-0.104,0.137-0.141,0.216c-0.011,0.024-0.021,0.047-0.03,0.072 c-0.034,0.093-0.058,0.191-0.058,0.293v41.816L1.308,140.928c-0.27-0.156-0.602-0.156-0.872,0C0.166,141.083,0,141.371,0,141.683 V314.76v65.219c0,0.311,0.166,0.599,0.436,0.755l112.566,64.992c0.135,0.078,0.286,0.117,0.436,0.117 c0.151,0,0.302-0.039,0.436-0.117c0.27-0.156,0.436-0.444,0.436-0.755v-9.321l54.539,31.487v31.991c0,0.311,0.166,0.599,0.436,0.755 c0.134,0.078,0.285,0.117,0.436,0.117c0.15,0,0.301-0.039,0.436-0.117l187.61-108.316c0.27-0.156,0.436-0.444,0.436-0.755v-64.989 v-194.97C358.202,130.541,358.036,130.253,357.766,130.097z M355.586,65.862L150.959,184.003L40.137,120.02L244.764,1.878 L355.586,65.862z M356.458,327.333v52.413L170.592,487.055v-52.413L356.458,327.333z M150.492,223.419l9.779-5.683l2.168,1.251 l-9.779,5.683L150.492,223.419z M268.971,172.145l-5.327,3.096l-7.296-4.212l5.327-3.096L268.971,172.145z M246.1,185.436 l-5.328,3.096l-7.295-4.212l5.327-3.096L246.1,185.436z M223.228,198.727l-5.328,3.096l-7.296-4.212l5.328-3.096L223.228,198.727z M200.356,212.019l-5.327,3.096l-7.296-4.212l5.327-3.096L200.356,212.019z M177.485,225.311l-5.329,3.096l-9.31-5.375l3.288-1.911 l1.577,0.91c0.135,0.078,0.286,0.117,0.436,0.117c0.151,0,0.303-0.039,0.438-0.118l1.603-0.932L177.485,225.311z M164.18,219.993 l0.213,0.123l-3.725,2.164c-0.269,0.156-0.435,0.444-0.434,0.755c0,0.311,0.166,0.598,0.436,0.754l11.051,6.381 c0.134,0.078,0.285,0.117,0.436,0.117c0.151,0,0.303-0.04,0.438-0.118l7.067-4.106c0.269-0.157,0.435-0.444,0.434-0.755 c0-0.311-0.166-0.598-0.436-0.754l-7.733-4.465l14.068-8.175l8.599,4.965c0.135,0.078,0.286,0.117,0.436,0.117 c0.152,0,0.303-0.039,0.438-0.118l7.066-4.106c0.269-0.156,0.434-0.444,0.434-0.755c-0.001-0.311-0.167-0.598-0.436-0.754 l-7.733-4.465l14.067-8.175l8.6,4.965c0.135,0.078,0.285,0.117,0.436,0.117s0.303-0.039,0.438-0.118l7.065-4.106 c0.269-0.156,0.435-0.444,0.434-0.755c0-0.311-0.166-0.598-0.436-0.754l-7.733-4.465l14.068-8.175l8.599,4.965 c0.135,0.078,0.285,0.117,0.436,0.117c0.151,0,0.303-0.04,0.438-0.118l7.066-4.106c0.269-0.156,0.434-0.444,0.434-0.755 c0-0.311-0.167-0.598-0.436-0.754l-7.733-4.465l14.068-8.175l8.599,4.965c0.135,0.078,0.286,0.117,0.436,0.117 c0.151,0,0.303-0.04,0.438-0.118l7.065-4.106c0.269-0.157,0.435-0.444,0.434-0.755c0-0.311-0.166-0.598-0.436-0.754l-7.733-4.464 l4.754-2.763l9.777,5.644l-109.798,63.808l-13.745-7.936L164.18,219.993z M168.146,220.269l-13.745-7.936l109.798-63.808 l13.745,7.936L168.146,220.269z M150.492,210.076l109.798-63.807l2.167,1.251L152.66,211.328L150.492,210.076z M264.633,146.762 l-3.909-2.257c-0.271-0.156-0.603-0.155-0.874,0.001l-111.536,64.818c-0.269,0.157-0.434,0.444-0.434,0.755 c0.001,0.311,0.167,0.598,0.436,0.754l3.909,2.257l6.305,3.641l-10.216,5.937c-0.269,0.156-0.434,0.444-0.434,0.755 c0.001,0.311,0.167,0.598,0.436,0.754l3.909,2.257l6.32,3.649l-7.185,4.149c-0.509,0.294-0.684,0.944-0.39,1.453 c0.197,0.341,0.555,0.532,0.923,0.532c0.181,0,0.363-0.046,0.531-0.143l8.249-4.763l3.331,1.923l-12.644,7.3 c-0.509,0.294-0.684,0.944-0.39,1.453c0.197,0.341,0.555,0.532,0.923,0.532c0.181,0,0.363-0.046,0.531-0.143l13.708-7.914 l1.58,0.912c0.135,0.078,0.286,0.117,0.436,0.117c0.151,0,0.303-0.039,0.438-0.118l98.802-57.418v3.818l-30.194,17.433 c0.019-0.212-0.004-0.429-0.119-0.628c-0.293-0.509-0.944-0.683-1.453-0.389l-84.262,48.649c-0.509,0.294-0.684,0.944-0.39,1.453 c0.197,0.341,0.555,0.532,0.923,0.532c0.181,0,0.363-0.046,0.531-0.143l16.425-9.483v1.281l-20.157,11.637 c-0.271,0.157-0.437,0.446-0.436,0.758l0.163,57.681c0.001,0.311,0.167,0.599,0.437,0.753c0.135,0.078,0.285,0.116,0.435,0.116 c0.15,0,0.301-0.039,0.436-0.117l19.121-11.039v3.388l-27.659,15.969v-47.531c0-0.417-0.337-0.754-0.754-0.754 c-0.417,0-0.754,0.338-0.754,0.754v48.401l-1.497,0.864l-0.016-5.535c-0.001-0.311-0.167-0.598-0.437-0.753 c-0.27-0.155-0.601-0.155-0.871,0l-22.552,13.02v-3.495l23.408-13.515c0.271-0.156,0.437-0.445,0.436-0.757l-0.033-11.439 c-0.001-0.311-0.167-0.598-0.437-0.753c-0.27-0.155-0.602-0.155-0.871,0l-22.504,12.993v-3.496l23.36-13.486 c0.271-0.157,0.437-0.446,0.436-0.758l-0.033-11.439c-0.001-0.311-0.167-0.598-0.437-0.753c-0.27-0.156-0.601-0.155-0.871,0 l-22.456,12.965v-3.84l9.516-5.494c0.001,0,0.001,0,0.001-0.001l9.762-5.636c0.133-0.076,0.243-0.186,0.319-0.319l12.916-22.373 c0.077-0.133,0.118-0.285,0.117-0.438l-0.205-72.477l2.251,1.3l0.057,20.184c0.001,0.311,0.167,0.598,0.437,0.753 c0.134,0.078,0.285,0.117,0.435,0.117c0.15,0,0.301-0.039,0.436-0.117l107.755-62.212c0.271-0.156,0.437-0.445,0.436-0.758 l-0.035-12.189c-0.001-0.312-0.169-0.6-0.44-0.755l-4.99-2.844l14.309-8.261v29.555L264.633,146.762z M114.31,358.528l16.951-9.787 l-0.098,34.573c-0.001,0.312,0.165,0.601,0.436,0.757l37.25,21.506v1.071l-54.539-31.487V358.528z M167.305,390.58 c-2.914,1.006-6.564,0.363-10.421-1.864l-0.102-0.061c-0.517-1.975-1.088-4.777-1.088-7.494c0-1.678,0.219-3.132,0.649-4.339 c0.075,0.039,0.149,0.064,0.224,0.1c0.164,0.08,0.327,0.156,0.49,0.221c0.117,0.047,0.234,0.09,0.35,0.129 c0.165,0.056,0.328,0.105,0.491,0.146c0.111,0.028,0.221,0.054,0.331,0.075c0.165,0.032,0.328,0.052,0.49,0.068 c0.104,0.01,0.207,0.021,0.31,0.024c0.05,0.001,0.102,0.012,0.151,0.012c0.105,0,0.203-0.019,0.306-0.027 c0.077-0.005,0.159,0.002,0.235-0.007C161.46,383.105,164.921,387.805,167.305,390.58z M154.661,387.269 c-3.814-2.762-7.332-6.794-10.078-11.577c0.002-0.003,0.004-0.007,0.006-0.01c0.029-0.052,0.061-0.104,0.092-0.156 c0.053-0.09,0.105-0.179,0.161-0.268c0.036-0.057,0.074-0.114,0.111-0.171c0.055-0.084,0.109-0.169,0.167-0.253 c0.04-0.059,0.083-0.117,0.125-0.175c0.057-0.08,0.116-0.161,0.177-0.24c0.045-0.059,0.091-0.117,0.138-0.175 c0.063-0.078,0.126-0.155,0.191-0.231c0.049-0.057,0.098-0.113,0.149-0.169c0.068-0.075,0.137-0.149,0.208-0.222 c0.052-0.054,0.105-0.108,0.159-0.161c0.074-0.073,0.15-0.143,0.228-0.212c0.055-0.05,0.109-0.1,0.166-0.148 c0.083-0.071,0.169-0.138,0.255-0.205c0.055-0.043,0.109-0.088,0.166-0.129c0.101-0.073,0.206-0.143,0.311-0.211 c0.047-0.03,0.091-0.063,0.139-0.092c0.154-0.094,0.314-0.183,0.478-0.266c0.033-0.017,0.069-0.03,0.102-0.046 c0.133-0.064,0.268-0.125,0.408-0.179c0.064-0.025,0.131-0.045,0.197-0.068c0.113-0.039,0.227-0.079,0.345-0.112 c0.076-0.022,0.156-0.039,0.234-0.058c0.112-0.027,0.225-0.053,0.341-0.074c0.084-0.016,0.17-0.027,0.256-0.039 c0.116-0.016,0.233-0.03,0.353-0.04c0.09-0.007,0.181-0.012,0.273-0.016c0.122-0.005,0.246-0.006,0.372-0.004 c0.094,0.001,0.189,0.003,0.286,0.009c0.051,0.003,0.104,0.01,0.156,0.014c0.019,0.035,0.042,0.067,0.062,0.101 c0.207,0.372,0.425,0.733,0.658,1.081c0.033,0.05,0.069,0.097,0.103,0.146c0.221,0.321,0.453,0.631,0.693,0.927 c0.041,0.05,0.079,0.102,0.121,0.151c0.26,0.312,0.531,0.606,0.81,0.886c0.058,0.058,0.116,0.114,0.174,0.17 c0.287,0.278,0.58,0.542,0.882,0.781c0.005,0.004,0.01,0.009,0.016,0.014c-0.046,0.112-0.078,0.239-0.12,0.355 c-0.059,0.163-0.116,0.329-0.168,0.499c-0.083,0.271-0.156,0.552-0.221,0.84c-0.04,0.174-0.083,0.346-0.116,0.527 c-0.06,0.323-0.105,0.661-0.145,1.004c-0.019,0.163-0.045,0.318-0.059,0.485c-0.044,0.518-0.072,1.052-0.072,1.61 c0,0.479,0.021,0.959,0.051,1.437c0.009,0.137,0.019,0.271,0.03,0.407c0.029,0.373,0.065,0.742,0.109,1.107 c0.013,0.108,0.023,0.216,0.037,0.323c0.059,0.458,0.126,0.908,0.2,1.346c0.016,0.093,0.034,0.181,0.05,0.272 c0.064,0.357,0.13,0.704,0.201,1.041C154.639,387.151,154.649,387.213,154.661,387.269z M143.626,373.932 c-2.529-4.922-3.951-10.045-4.049-14.626c1.366,0.297,3.155,0.874,5.103,1.993c1.776,1.031,3.363,2.287,4.853,3.842 c0.036,0.037,0.072,0.074,0.107,0.112c-0.003,0.096-0.005,0.195-0.006,0.295c-0.004,1.336,0.3,2.812,0.868,4.265 C147.116,369.919,144.923,372.026,143.626,373.932z M139.608,357.531c0.251-4.366,1.818-7.625,4.466-9.302 c0.004,0.005,0.009,0.011,0.014,0.016c0.259,0.295,0.537,0.623,0.823,0.969c0.037,0.045,0.072,0.086,0.109,0.131 c0.28,0.341,0.572,0.71,0.869,1.095c0.053,0.069,0.106,0.137,0.159,0.208c0.295,0.388,0.596,0.797,0.898,1.224 c0.054,0.077,0.109,0.156,0.163,0.234c0.308,0.441,0.616,0.9,0.922,1.378c0.041,0.064,0.081,0.131,0.122,0.196 c0.32,0.508,0.637,1.032,0.944,1.576c0.005,0.01,0.01,0.019,0.016,0.029c0.303,0.538,0.594,1.096,0.874,1.667 c0.034,0.069,0.07,0.137,0.103,0.206c0.267,0.553,0.518,1.123,0.755,1.702c0.04,0.098,0.081,0.196,0.12,0.295 c0.228,0.576,0.437,1.163,0.626,1.76c0.016,0.05,0.031,0.101,0.046,0.151c-0.048,0.032-0.089,0.073-0.136,0.107 c-0.094,0.069-0.187,0.139-0.275,0.217c-0.07,0.062-0.137,0.128-0.203,0.196c-0.083,0.085-0.163,0.172-0.238,0.265 c-0.06,0.073-0.118,0.15-0.174,0.228c-0.071,0.1-0.138,0.204-0.201,0.312c-0.05,0.084-0.097,0.168-0.142,0.256 c-0.059,0.116-0.112,0.236-0.163,0.36c-0.024,0.057-0.054,0.108-0.076,0.167c-0.086-0.083-0.176-0.157-0.263-0.238 c-0.15-0.14-0.302-0.277-0.454-0.412c-0.247-0.219-0.498-0.432-0.751-0.639c-0.145-0.118-0.29-0.238-0.438-0.353 c-0.32-0.249-0.645-0.486-0.973-0.714c-0.083-0.057-0.163-0.119-0.248-0.176c-0.419-0.283-0.843-0.555-1.274-0.805 c-0.013-0.008-0.027-0.014-0.04-0.021c-0.013-0.007-0.025-0.016-0.037-0.023c-0.001-0.001-0.002-0.001-0.003-0.002 c-0.449-0.258-0.887-0.481-1.319-0.689c-0.068-0.033-0.135-0.064-0.202-0.095c-0.474-0.222-0.94-0.426-1.384-0.595 c-0.007-0.002-0.014-0.004-0.02-0.007c-0.464-0.176-0.904-0.319-1.327-0.445c-0.088-0.026-0.176-0.055-0.263-0.08 c-0.475-0.134-0.914-0.237-1.321-0.32C139.677,357.549,139.643,357.538,139.608,357.531z M145.703,347.445 c2.912-1.006,6.562-0.362,10.424,1.868l0.096,0.056c0.019,0.075,0.039,0.15,0.059,0.228c0.031,0.122,0.062,0.246,0.094,0.374 c0.036,0.147,0.072,0.3,0.108,0.454c0.031,0.133,0.062,0.266,0.092,0.404c0.036,0.16,0.07,0.326,0.105,0.492 c0.029,0.143,0.059,0.284,0.088,0.43c0.034,0.172,0.065,0.348,0.096,0.525c0.027,0.147,0.054,0.294,0.078,0.444 c0.031,0.185,0.058,0.375,0.086,0.563c0.022,0.148,0.045,0.295,0.065,0.445c0.027,0.2,0.048,0.403,0.07,0.605 c0.016,0.144,0.034,0.286,0.048,0.431c0.021,0.226,0.036,0.453,0.051,0.681c0.008,0.123,0.019,0.246,0.026,0.369 c0.018,0.351,0.028,0.704,0.028,1.054c0,0.481-0.023,0.937-0.059,1.38c-0.011,0.14-0.029,0.272-0.044,0.408 c-0.033,0.301-0.073,0.595-0.122,0.877c-0.025,0.142-0.052,0.281-0.081,0.417c-0.059,0.276-0.129,0.541-0.206,0.797 c-0.033,0.11-0.062,0.224-0.098,0.331c-0.015,0.043-0.035,0.08-0.05,0.122c-0.975-0.511-1.94-0.772-2.832-0.772 c-0.182,0-0.363,0.011-0.538,0.033C151.55,354.923,148.088,350.221,145.703,347.445z M158.348,350.757 c3.817,2.765,7.334,6.797,10.076,11.578c-0.002,0.004-0.004,0.008-0.007,0.012c-0.03,0.052-0.062,0.105-0.093,0.157 c-0.051,0.088-0.102,0.175-0.156,0.262c-0.041,0.065-0.085,0.13-0.127,0.196c-0.048,0.074-0.096,0.148-0.146,0.221 c-0.048,0.07-0.097,0.138-0.147,0.207c-0.05,0.069-0.099,0.137-0.151,0.205c-0.054,0.07-0.109,0.14-0.165,0.209 c-0.051,0.064-0.104,0.128-0.157,0.19c-0.06,0.071-0.121,0.141-0.184,0.209c-0.054,0.06-0.109,0.118-0.164,0.176 c-0.066,0.069-0.133,0.138-0.202,0.205c-0.055,0.054-0.113,0.107-0.17,0.159c-0.073,0.067-0.147,0.134-0.223,0.199 c-0.056,0.047-0.115,0.092-0.173,0.138c-0.082,0.066-0.163,0.131-0.249,0.194c-0.051,0.036-0.105,0.07-0.156,0.106 c-0.337,0.23-0.699,0.432-1.087,0.597c-0.052,0.022-0.101,0.047-0.154,0.068c-0.104,0.041-0.214,0.076-0.322,0.111 c-0.072,0.024-0.143,0.05-0.217,0.071c-0.104,0.03-0.212,0.054-0.32,0.079c-0.084,0.019-0.168,0.039-0.254,0.055 c-0.105,0.019-0.212,0.034-0.32,0.049c-0.096,0.013-0.193,0.024-0.292,0.033c-0.104,0.009-0.21,0.015-0.317,0.019 c-0.11,0.004-0.223,0.005-0.337,0.003c-0.101-0.001-0.203-0.004-0.307-0.009c-0.05-0.003-0.101-0.009-0.151-0.013 c-0.933-1.704-2.156-3.184-3.516-4.256c0.598-1.477,0.9-3.262,0.901-5.318C159.061,354.738,158.736,352.578,158.348,350.757z M160.011,375.708c-0.822,0.315-1.918,0.117-3.089-0.56c-0.167-0.096-0.33-0.2-0.496-0.314c-0.363-0.248-0.722-0.536-1.069-0.857 c-1.043-0.964-1.992-2.229-2.699-3.619c-0.829-1.621-1.284-3.329-1.28-4.807c0.001-0.187,0.008-0.367,0.024-0.545 c0.12-1.392,0.684-2.347,1.593-2.69c0.184-0.071,0.386-0.106,0.596-0.126c0.042-0.004,0.084-0.009,0.127-0.01 c0.214-0.009,0.436,0.003,0.671,0.044c0.032,0.006,0.067,0.018,0.099,0.024c0.205,0.041,0.417,0.104,0.634,0.182 c0.066,0.024,0.132,0.049,0.199,0.076c0.25,0.103,0.504,0.22,0.764,0.37c0.001,0.001,0.003,0.001,0.004,0.002 c0.166,0.096,0.329,0.199,0.495,0.312c0.363,0.248,0.721,0.535,1.069,0.856c1.043,0.963,1.991,2.228,2.697,3.618 c0.83,1.625,1.285,3.333,1.28,4.807c0,0.188-0.008,0.369-0.024,0.546c-0.015,0.174-0.037,0.341-0.066,0.501 C161.339,374.64,160.807,375.409,160.011,375.708z M162.783,373.424l0.221-0.281l0.068,0.007L162.783,373.424L162.783,373.424z M168.289,376.704c-1.728-1.002-3.351-2.29-4.874-3.88l-0.052,0.049c0.007-0.128,0.01-0.26,0.01-0.395 c0.003-1.334-0.3-2.809-0.869-4.264c2.961-0.093,5.008-1.715,6.343-3.395v12.181C168.662,376.9,168.475,376.811,168.289,376.704z M168.092,388.807c-0.034-0.041-0.067-0.08-0.102-0.122c-0.282-0.343-0.575-0.713-0.873-1.1c-0.052-0.067-0.103-0.133-0.155-0.202 c-0.296-0.389-0.598-0.799-0.901-1.228c-0.054-0.076-0.108-0.154-0.162-0.231c-0.308-0.442-0.617-0.901-0.923-1.38 c-0.04-0.063-0.08-0.128-0.12-0.192c-0.321-0.508-0.638-1.032-0.946-1.577c-0.005-0.01-0.011-0.02-0.017-0.031 c-0.302-0.537-0.593-1.095-0.873-1.664c-0.034-0.07-0.07-0.138-0.104-0.208c-0.267-0.552-0.517-1.121-0.753-1.698 c-0.041-0.101-0.083-0.201-0.123-0.303c-0.227-0.574-0.436-1.16-0.625-1.755c-0.017-0.051-0.031-0.103-0.047-0.154 c0.048-0.032,0.089-0.073,0.135-0.107c0.094-0.069,0.187-0.139,0.275-0.217c0.07-0.062,0.137-0.127,0.202-0.195 c0.083-0.085,0.163-0.172,0.239-0.266c0.06-0.073,0.118-0.149,0.173-0.227c0.071-0.1,0.138-0.204,0.202-0.313 c0.049-0.083,0.097-0.167,0.142-0.255c0.059-0.116,0.113-0.237,0.164-0.361c0.024-0.057,0.054-0.108,0.075-0.167 c0.09,0.087,0.185,0.165,0.276,0.251c0.128,0.12,0.259,0.237,0.389,0.353c0.29,0.258,0.583,0.507,0.88,0.747 c0.102,0.082,0.202,0.166,0.305,0.246c0.389,0.305,0.783,0.596,1.185,0.87c0.021,0.015,0.041,0.03,0.062,0.045 c0.427,0.29,0.859,0.568,1.299,0.823c0.001,0.001,0.095,0.055,0.102,0.059c0,0,0.001,0.001,0.002,0.001 c0.19,0.109,0.385,0.2,0.577,0.302c0.264,0.141,0.527,0.287,0.794,0.415v10.73C168.608,389.421,168.356,389.125,168.092,388.807z M157.428,348.055c-0.002-0.001-0.004-0.001-0.006-0.002c-0.001,0-0.002-0.002-0.004-0.003l-0.417-0.247c0,0-0.001,0-0.001-0.001 c-4.873-2.813-9.541-3.33-13.146-1.456c0,0,0,0,0,0l0,0c0,0-0.001,0-0.001,0s-0.001,0.001-0.001,0.001 c-3.75,1.942-5.886,6.165-6.016,11.893c0,0.011,0.005,0.02,0.005,0.032c0,0.009-0.006,0.018-0.006,0.028l-0.006,0.43 c-0.016,5.432,1.759,11.61,4.997,17.395c3.349,5.985,7.879,10.901,12.755,13.843c0,0,0,0,0.001,0c0,0,0,0,0,0l0.431,0.257 c2.944,1.7,5.815,2.56,8.422,2.56c1.585,0,3.066-0.332,4.414-0.973v11.75l-35.941-20.75l0.158-55.485l35.783,20.659v11.681 C165.678,354.699,161.687,350.626,157.428,348.055z M168.848,345.623l-34.895-19.808l34.895-20.147V345.623z M136.43,317.333 l0.014,5.03l-4.683,2.703c-0.025,0.015-0.044,0.036-0.067,0.052c-0.039,0.028-0.081,0.054-0.115,0.088 c-0.02,0.02-0.034,0.045-0.052,0.067c-0.03,0.036-0.062,0.072-0.086,0.112c-0.017,0.03-0.026,0.063-0.039,0.095 c-0.017,0.037-0.036,0.074-0.047,0.114c-0.009,0.034-0.009,0.07-0.014,0.105c-0.006,0.04-0.016,0.079-0.017,0.12l-0.011,3.91 l-17.005,9.818v-9.444L136.43,317.333z M131.309,331.747l-0.01,3.502l-16.989,9.808v-3.496L131.309,331.747z M131.293,337.266 l-0.027,9.459l-16.957,9.79v-9.444L131.293,337.266z M180.31,245.282l166.429-96.088V330.93L180.31,427.017V245.282z M154.148,302.134l-0.131-46.473l14.832-8.563v46.548L154.148,302.134z M152.707,254.403c-0.271,0.156-0.437,0.445-0.436,0.758 l0.138,48.484c0.001,0.311,0.167,0.598,0.437,0.753c0.134,0.077,0.285,0.116,0.435,0.116c0.15,0,0.301-0.039,0.436-0.117 l15.132-8.736v2.592l-18.689,10.79l-0.158-55.67l18.847-10.881v2.592L152.707,254.403z M136.382,300.395l0.027,9.428l-22.099,12.758 v-9.444L136.382,300.395z M136.334,283.456l0.026,9.428l-22.051,12.731v-9.443L136.334,283.456z M96.017,195.609 c0.026-0.145,0.053-0.291,0.081-0.437c0.096-0.508,0.2-1.018,0.319-1.531c0.075-0.326,0.158-0.654,0.242-0.982 c0.13-0.506,0.272-1.012,0.423-1.52c0.098-0.328,0.197-0.657,0.303-0.986c0.169-0.523,0.354-1.046,0.545-1.57 c0.113-0.31,0.221-0.621,0.342-0.932c0.227-0.584,0.475-1.168,0.729-1.752c0.108-0.247,0.205-0.495,0.318-0.743 c0.375-0.827,0.774-1.65,1.2-2.47c0.068-0.13,0.145-0.258,0.215-0.389c0.327-0.616,0.67-1.228,1.025-1.836 c3.092-0.066,6.908,0.743,8.784,4.677c-1.272,2.066-2.103,4.311-2.384,6.434c-1.894,0.255-3.933,1.002-6.075,2.225 c-0.001,0.001-0.102,0.058-0.104,0.059c-1.339,0.777-2.701,1.739-4.076,2.841L96.017,195.609z M87.303,158.321l7.843-4.528 l13.181,7.61l0.021,7.651c-2.912,2.864-5.624,6.352-7.86,10.11c-3.011,5.055-5.072,10.396-6.068,15.524l-7.026-4.057L87.303,158.321 z M113.807,164.568c-1.26,0.849-2.504,1.801-3.72,2.869l-0.014-5.025L113.807,164.568z M102.419,194.612L102.419,194.612 L102.419,194.612L102.419,194.612z M114.31,259.137c0.041-0.008,0.079-0.008,0.12-0.017c-0.046,0.18-0.078,0.358-0.12,0.537V259.137 z M117.797,257.523c0.068-0.049,0.135-0.096,0.202-0.147c0.31-0.233,0.616-0.482,0.915-0.751c0.051-0.046,0.101-0.095,0.151-0.142 c0.274-0.253,0.544-0.52,0.806-0.8c0.046-0.049,0.092-0.095,0.138-0.145c0.283-0.31,0.557-0.636,0.823-0.975 c0.026-0.033,0.054-0.062,0.08-0.095c0.504,0.843,1.112,1.583,1.818,2.212c2.123,1.887,4.786,2.486,7.033,2.585 c-0.005,0.007-0.009,0.015-0.014,0.022c-0.466,0.729-0.953,1.443-1.452,2.143c-0.077,0.109-0.153,0.219-0.232,0.327 c-0.483,0.668-0.981,1.319-1.49,1.954c-0.096,0.12-0.192,0.238-0.289,0.357c-0.514,0.63-1.039,1.244-1.575,1.834 c-0.082,0.091-0.166,0.178-0.249,0.268c-0.56,0.608-1.128,1.199-1.706,1.758c-0.006,0.006-0.012,0.012-0.018,0.018v0 c-0.527,0.51-1.061,0.997-1.599,1.463c-0.171,0.148-0.345,0.282-0.517,0.425c-0.369,0.309-0.737,0.617-1.11,0.904 c-0.214,0.165-0.431,0.315-0.647,0.473c-0.334,0.245-0.668,0.493-1.005,0.721c-0.234,0.159-0.47,0.303-0.705,0.453 c-0.254,0.162-0.507,0.323-0.762,0.475c-0.032-0.093-0.063-0.185-0.094-0.283c-0.027-0.084-0.054-0.166-0.082-0.254 c-0.065-0.212-0.129-0.435-0.191-0.666c-0.012-0.042-0.024-0.081-0.035-0.124c-0.072-0.275-0.141-0.565-0.206-0.866 c-0.018-0.085-0.035-0.176-0.053-0.263c-0.045-0.22-0.088-0.446-0.128-0.679c-0.02-0.117-0.038-0.238-0.056-0.359 c-0.034-0.218-0.064-0.442-0.092-0.671c-0.016-0.129-0.031-0.259-0.045-0.391c-0.026-0.245-0.046-0.498-0.064-0.754 c-0.008-0.121-0.019-0.239-0.025-0.362c-0.021-0.382-0.035-0.773-0.036-1.178c-0.001-0.636,0.024-1.279,0.074-1.925 c0.016-0.212,0.051-0.426,0.073-0.638c0.045-0.436,0.088-0.873,0.156-1.312c0.04-0.259,0.099-0.52,0.147-0.779 c0.073-0.397,0.143-0.793,0.235-1.191c0.065-0.28,0.147-0.561,0.221-0.842c0.085-0.322,0.168-0.643,0.265-0.965 c0.122-0.063,0.245-0.13,0.368-0.202C117.155,257.971,117.477,257.753,117.797,257.523z M122.616,251.809 c0.137-0.258,0.26-0.52,0.383-0.782c0.08-0.17,0.166-0.339,0.24-0.511c0.127-0.293,0.236-0.588,0.344-0.883 c0.054-0.145,0.115-0.289,0.164-0.435c0.149-0.441,0.28-0.883,0.387-1.323c0.107-0.441,0.185-0.877,0.247-1.307 c0.007-0.047,0.021-0.096,0.027-0.143c0.003-0.001,0.006-0.001,0.01-0.001c1.901-0.257,3.957-1.015,6.115-2.254 c2.112-1.223,4.271-2.85,6.431-4.843c-0.005,0.053-0.004,0.104-0.009,0.157c-0.024,0.265-0.065,0.533-0.096,0.8 c-0.062,0.533-0.129,1.069-0.217,1.609c-0.051,0.312-0.115,0.627-0.174,0.941c-0.096,0.504-0.199,1.01-0.316,1.518 c-0.076,0.328-0.159,0.657-0.244,0.987c-0.13,0.506-0.272,1.012-0.423,1.52c-0.097,0.327-0.196,0.654-0.302,0.982 c-0.171,0.526-0.357,1.053-0.549,1.58c-0.112,0.307-0.219,0.614-0.339,0.921c-0.231,0.593-0.482,1.184-0.739,1.776 c-0.104,0.239-0.198,0.478-0.306,0.717c-0.377,0.83-0.777,1.657-1.205,2.479c-0.06,0.115-0.128,0.227-0.188,0.342 c-0.333,0.628-0.684,1.252-1.046,1.873c-0.058,0.001-0.114,0.004-0.174,0.005c-0.134,0.001-0.272,0-0.411-0.002 c-0.142-0.002-0.285-0.008-0.431-0.015c-0.153-0.007-0.308-0.017-0.466-0.03c-0.145-0.012-0.291-0.028-0.438-0.045 c-0.159-0.018-0.319-0.038-0.48-0.064c-0.154-0.024-0.309-0.055-0.465-0.087c-0.157-0.031-0.313-0.062-0.47-0.101 c-0.165-0.04-0.331-0.091-0.496-0.142c-0.147-0.044-0.295-0.086-0.441-0.137c-0.178-0.063-0.352-0.14-0.527-0.215 c-0.132-0.057-0.265-0.108-0.396-0.171c-0.197-0.096-0.387-0.212-0.579-0.326c-0.103-0.062-0.21-0.114-0.311-0.181 c-0.289-0.192-0.57-0.403-0.838-0.641c-0.205-0.182-0.398-0.378-0.582-0.584c-0.061-0.067-0.115-0.141-0.174-0.211 c-0.12-0.144-0.238-0.289-0.348-0.443c-0.064-0.089-0.123-0.183-0.183-0.276c-0.095-0.145-0.189-0.293-0.277-0.447 c-0.059-0.104-0.115-0.211-0.17-0.319c-0.043-0.083-0.082-0.17-0.123-0.255c0.101-0.164,0.187-0.334,0.283-0.501 C122.417,252.164,122.521,251.989,122.616,251.809z M124.161,242.375c-0.021-0.068-0.045-0.133-0.067-0.199 c-0.1-0.29-0.213-0.567-0.346-0.825c-0.011-0.022-0.02-0.047-0.032-0.068c-0.145-0.272-0.315-0.519-0.497-0.75 c-0.02-0.025-0.034-0.057-0.054-0.081c0.258-0.278,0.51-0.56,0.757-0.845c0.523-0.603,1.015-1.224,1.489-1.852 c0.052-0.07,0.107-0.138,0.159-0.207c0.445-0.598,0.865-1.204,1.267-1.813c0.066-0.099,0.132-0.198,0.196-0.297 c0.388-0.598,0.755-1.197,1.104-1.795c0.061-0.105,0.12-0.208,0.18-0.313c0.344-0.6,0.67-1.197,0.975-1.787 c0.045-0.086,0.086-0.17,0.13-0.256c0.31-0.608,0.605-1.21,0.877-1.795c0.015-0.033,0.028-0.063,0.043-0.095 c0.271-0.588,0.521-1.16,0.754-1.714c0.02-0.049,0.042-0.099,0.063-0.148c0.227-0.545,0.433-1.066,0.624-1.567 c0.029-0.076,0.058-0.152,0.087-0.227c0.181-0.479,0.343-0.93,0.491-1.357c0.009-0.026,0.02-0.056,0.029-0.081 c0.062,0.05,0.131,0.091,0.192,0.143c0.166,0.14,0.323,0.294,0.48,0.446c0.213,0.205,0.421,0.415,0.618,0.64 c0.148,0.17,0.289,0.349,0.428,0.531c0.182,0.239,0.358,0.486,0.525,0.744c0.127,0.197,0.25,0.399,0.367,0.607 c0.154,0.273,0.298,0.558,0.436,0.85c0.104,0.22,0.207,0.442,0.302,0.672c0.127,0.311,0.24,0.636,0.35,0.966 c0.079,0.238,0.162,0.472,0.232,0.72c0.101,0.357,0.183,0.731,0.265,1.107c0.053,0.244,0.113,0.481,0.158,0.733 c0.076,0.428,0.128,0.877,0.18,1.327c0.025,0.222,0.062,0.434,0.081,0.661c0.058,0.687,0.092,1.394,0.094,2.126v0 c0,0.069-0.001,0.14-0.001,0.21l-0.36,0.356l0,0c0,0,0,0-0.001,0.001c-0.584,0.568-1.167,1.107-1.75,1.619 c-0.034,0.03-0.067,0.058-0.101,0.088c-0.541,0.473-1.081,0.919-1.619,1.341c-0.068,0.054-0.135,0.106-0.203,0.158 c-0.542,0.419-1.081,0.815-1.617,1.181c-0.033,0.022-0.065,0.044-0.098,0.066c-0.552,0.374-1.1,0.721-1.645,1.037 c-0.243,0.139-0.475,0.254-0.712,0.379c-0.227,0.12-0.456,0.25-0.68,0.358c-0.23,0.111-0.45,0.198-0.674,0.296 c-0.24,0.104-0.481,0.215-0.716,0.304c-0.182,0.07-0.358,0.12-0.536,0.181c-0.265,0.089-0.529,0.18-0.787,0.249 c-0.177,0.048-0.349,0.08-0.523,0.118c-0.188,0.042-0.376,0.08-0.56,0.111c-0.001-0.043-0.009-0.081-0.011-0.124 c-0.012-0.333-0.04-0.656-0.085-0.967c-0.009-0.061-0.015-0.125-0.024-0.186C124.336,243.012,124.257,242.686,124.161,242.375z M119.612,238.816c-0.421,0-0.857,0.049-1.303,0.147c0.594-2.331,0.89-4.645,0.885-6.899c-0.008-3.281-0.658-5.907-1.299-7.703 c0.17-0.088,0.341-0.177,0.511-0.26c0.206-0.1,0.413-0.201,0.618-0.294c0.302-0.137,0.602-0.259,0.902-0.38 c0.192-0.077,0.385-0.159,0.576-0.229c0.327-0.12,0.651-0.222,0.974-0.322c0.159-0.05,0.32-0.108,0.478-0.152 c0.475-0.133,0.946-0.247,1.411-0.335c0.004,0,0.008-0.002,0.012-0.002c2.81-0.532,5.392-0.22,7.517,0.902 c-1.242,3.702-3.829,10.029-8.289,15.177c-0.257,0.296-0.52,0.589-0.788,0.877C121.156,238.992,120.411,238.816,119.612,238.816z M116.229,212.785c-0.034-0.098-0.067-0.196-0.1-0.298c-0.027-0.083-0.054-0.163-0.08-0.249c-0.064-0.209-0.127-0.429-0.188-0.656 c-0.013-0.047-0.026-0.089-0.038-0.136c-0.072-0.274-0.14-0.562-0.205-0.861c-0.019-0.088-0.036-0.182-0.054-0.273 c-0.044-0.217-0.087-0.439-0.126-0.669c-0.02-0.119-0.038-0.241-0.057-0.363c-0.033-0.217-0.064-0.439-0.091-0.666 c-0.016-0.13-0.032-0.261-0.045-0.394c-0.026-0.245-0.046-0.497-0.064-0.752c-0.008-0.121-0.019-0.24-0.025-0.364 c-0.021-0.382-0.035-0.773-0.036-1.178c-0.001-0.636,0.024-1.278,0.074-1.924c0.017-0.214,0.051-0.431,0.073-0.646 c0.045-0.434,0.087-0.867,0.155-1.304c0.04-0.261,0.1-0.524,0.148-0.786c0.073-0.395,0.143-0.788,0.234-1.185 c0.065-0.281,0.148-0.563,0.222-0.846c0.085-0.321,0.168-0.642,0.265-0.963c0.122-0.064,0.244-0.131,0.368-0.202 c0.326-0.188,0.648-0.406,0.968-0.636c0.068-0.049,0.134-0.096,0.201-0.147c0.31-0.233,0.616-0.482,0.916-0.751 c0.051-0.046,0.1-0.094,0.151-0.141c0.273-0.252,0.541-0.518,0.803-0.797c0.048-0.051,0.096-0.098,0.143-0.15 c0.282-0.308,0.554-0.634,0.819-0.971c0.027-0.034,0.056-0.064,0.082-0.098c0.504,0.843,1.112,1.584,1.819,2.212 c2.123,1.888,4.786,2.486,7.034,2.586c-2.059,3.231-4.468,6.21-7.025,8.682C120.528,209.832,118.397,211.488,116.229,212.785z M111.165,196.845c-0.878-0.697-1.364-2.008-1.369-3.692c0-0.236,0.009-0.475,0.028-0.721c0.019-0.269,0.051-0.542,0.092-0.819 c0.252-1.662,0.899-3.454,1.847-5.111c0.078-0.136,0.163-0.267,0.245-0.401c0.085-0.139,0.165-0.279,0.254-0.416 c0.305-0.471,0.629-0.92,0.97-1.343c0.332-0.412,0.68-0.799,1.038-1.159c0.01-0.009,0.019-0.02,0.028-0.03 c0.737-0.735,1.52-1.349,2.313-1.807c0,0,0,0,0,0c0.201-0.117,0.402-0.223,0.603-0.316c0.2-0.095,0.398-0.177,0.592-0.248 c0.073-0.027,0.143-0.043,0.215-0.067c0.12-0.038,0.24-0.081,0.357-0.11c0.088-0.022,0.172-0.034,0.258-0.05 c0.096-0.019,0.195-0.043,0.289-0.055c0.095-0.013,0.185-0.013,0.278-0.019c0.081-0.005,0.164-0.015,0.242-0.015 c0.13,0,0.254,0.014,0.378,0.028c0.039,0.005,0.081,0.004,0.12,0.01c0.152,0.024,0.299,0.06,0.441,0.105 c0.008,0.002,0.017,0.003,0.024,0.006c0.3,0.099,0.576,0.248,0.823,0.447c0.878,0.697,1.364,2.009,1.369,3.696 c0,0.237-0.009,0.479-0.026,0.719c-0.045,0.61-0.148,1.249-0.306,1.898c-0.399,1.638-1.137,3.314-2.133,4.845 c-1.221,1.884-2.767,3.425-4.35,4.339c-0.205,0.118-0.406,0.223-0.605,0.317C113.567,197.638,112.142,197.628,111.165,196.845z M133.684,181.852c0.481-0.366,0.947-0.736,1.393-1.108c0.112-0.093,0.224-0.191,0.336-0.286c0.442-0.377,0.867-0.75,1.265-1.114 c0.042-0.039,0.085-0.073,0.128-0.113c-0.51,5.85-2.654,12.218-6.151,18.207c-0.07,0.001-0.137,0.004-0.208,0.005 c-0.118,0.001-0.238,0-0.359-0.002c-0.163-0.002-0.329-0.008-0.497-0.017c-0.133-0.006-0.266-0.015-0.401-0.025 c-0.167-0.014-0.336-0.032-0.506-0.053c-0.14-0.017-0.28-0.034-0.421-0.056c-0.172-0.027-0.346-0.061-0.52-0.096 c-0.141-0.029-0.282-0.056-0.423-0.091c-0.178-0.043-0.355-0.098-0.533-0.151c-0.137-0.042-0.274-0.08-0.411-0.128 c-0.185-0.066-0.367-0.145-0.55-0.224c-0.125-0.054-0.252-0.102-0.376-0.162c-0.2-0.098-0.394-0.215-0.587-0.33 c-0.101-0.06-0.205-0.111-0.305-0.177c-0.289-0.191-0.57-0.403-0.838-0.641c-0.205-0.182-0.398-0.378-0.582-0.583 c-0.06-0.067-0.114-0.14-0.172-0.209c-0.121-0.145-0.239-0.291-0.351-0.446c-0.063-0.087-0.12-0.18-0.18-0.27 c-0.097-0.148-0.192-0.298-0.281-0.454c-0.057-0.101-0.111-0.205-0.165-0.31c-0.044-0.085-0.084-0.174-0.126-0.262 c0.101-0.165,0.189-0.337,0.285-0.504c0.101-0.176,0.203-0.349,0.297-0.527c0.138-0.26,0.262-0.524,0.386-0.788 c0.079-0.169,0.164-0.336,0.238-0.507c0.127-0.294,0.236-0.59,0.346-0.887c0.053-0.144,0.114-0.286,0.163-0.431 c0.149-0.441,0.28-0.883,0.387-1.323c0.107-0.441,0.185-0.876,0.247-1.307c0.007-0.047,0.021-0.096,0.027-0.143 c0.231-0.031,0.471-0.093,0.706-0.139c0.218-0.042,0.434-0.073,0.655-0.128c0.307-0.076,0.622-0.182,0.935-0.281 c0.201-0.065,0.399-0.114,0.603-0.189c1.045-0.38,2.122-0.884,3.228-1.519c0.018-0.01,0.036-0.023,0.053-0.033 c0.015-0.009,0.029-0.015,0.045-0.023c0.104-0.06,0.204-0.127,0.308-0.189c0.286-0.171,0.573-0.343,0.864-0.532 c0.09-0.059,0.178-0.121,0.267-0.181c0.065-0.043,0.13-0.089,0.195-0.133c0.018-0.012,0.035-0.024,0.052-0.036 c0.212-0.143,0.422-0.28,0.634-0.431c0.002-0.001,0.002-0.003,0.004-0.005c0.209-0.149,0.41-0.303,0.614-0.455 C133.497,181.992,133.591,181.923,133.684,181.852z M114.31,271.975c0.171,0.651,0.355,1.245,0.54,1.762 c-0.181,0.093-0.36,0.169-0.54,0.256V271.975z M145.197,255.826l-12.682,21.967l-8.257,4.767l-0.039-13.62 c2.911-2.863,5.624-6.351,7.861-10.108c4.241-7.119,6.64-14.812,6.755-21.664c0.003-0.199,0.005-0.401,0.005-0.597 c-0.019-6.731-2.305-11.854-6.435-14.424c-0.312-0.195-0.634-0.372-0.962-0.534c-0.102-0.05-0.208-0.091-0.311-0.138 c-0.23-0.106-0.461-0.209-0.7-0.299c-0.129-0.049-0.263-0.09-0.395-0.134c-0.219-0.074-0.439-0.146-0.663-0.207 c-0.144-0.039-0.291-0.072-0.437-0.106c-0.22-0.051-0.442-0.099-0.668-0.138c-0.153-0.027-0.307-0.049-0.461-0.071 c-0.226-0.031-0.455-0.056-0.686-0.075c-0.158-0.013-0.315-0.024-0.475-0.032c-0.236-0.011-0.475-0.015-0.716-0.014 c-0.158,0-0.316,0-0.476,0.005c-0.252,0.009-0.506,0.029-0.761,0.051c-0.153,0.013-0.305,0.022-0.459,0.04 c-0.051,0.006-0.1,0.007-0.151,0.014l-0.033-11.659c0.153-0.15,0.303-0.309,0.454-0.463c0.17-0.172,0.341-0.343,0.509-0.519 c0.197-0.206,0.391-0.419,0.586-0.631c0.164-0.179,0.33-0.356,0.493-0.539c0.195-0.218,0.385-0.443,0.577-0.666 c0.159-0.184,0.319-0.367,0.476-0.555c0.193-0.232,0.382-0.47,0.572-0.706c0.15-0.188,0.303-0.372,0.452-0.562 c0.194-0.249,0.383-0.504,0.574-0.757c0.139-0.185,0.281-0.367,0.418-0.555c0.201-0.275,0.396-0.556,0.592-0.835 c0.121-0.172,0.244-0.341,0.363-0.514c0.223-0.326,0.438-0.657,0.654-0.989c0.087-0.133,0.177-0.263,0.262-0.397 c0.299-0.469,0.592-0.942,0.876-1.42c3.879-6.509,6.194-13.493,6.652-19.883l6.427,3.711L145.197,255.826z M129.592,182.514 c-1.92,1.103-3.643,1.775-5.249,2.044c-0.001-0.049-0.01-0.091-0.012-0.139c-0.012-0.334-0.04-0.657-0.085-0.968 c-0.009-0.061-0.014-0.123-0.024-0.183c-0.057-0.343-0.136-0.669-0.232-0.98c-0.021-0.068-0.045-0.132-0.068-0.198 c-0.1-0.291-0.213-0.569-0.347-0.828c-0.011-0.021-0.019-0.044-0.031-0.065c-0.145-0.272-0.315-0.52-0.499-0.752 c-0.019-0.024-0.033-0.055-0.053-0.08c0.258-0.278,0.51-0.56,0.757-0.845c0.566-0.653,1.099-1.323,1.609-2.002 c0.172-0.23,0.326-0.465,0.493-0.697c0.325-0.454,0.65-0.908,0.952-1.369c0.182-0.279,0.349-0.558,0.523-0.838 c0.261-0.419,0.522-0.837,0.764-1.258c0.078-0.135,0.157-0.269,0.234-0.404l7.815,4.512 C134.413,179.103,132.106,181.054,129.592,182.514z M122.434,178.376c-0.257,0.296-0.52,0.589-0.789,0.877 c-0.659-0.35-1.404-0.526-2.203-0.526c-0.422,0-0.858,0.05-1.305,0.147c0.026-0.101,0.043-0.201,0.068-0.302 c0.054-0.222,0.1-0.444,0.148-0.666c0.098-0.445,0.186-0.888,0.262-1.33c0.04-0.236,0.079-0.471,0.113-0.707 c0.066-0.452,0.117-0.901,0.16-1.349c0.019-0.206,0.044-0.412,0.059-0.617c0.047-0.646,0.075-1.289,0.074-1.927 c-0.001-0.445-0.016-0.875-0.039-1.296c-0.008-0.14-0.021-0.272-0.031-0.41c-0.02-0.276-0.041-0.549-0.069-0.814 c-0.016-0.154-0.036-0.302-0.054-0.453c-0.03-0.236-0.061-0.47-0.096-0.697c-0.023-0.149-0.048-0.295-0.073-0.44 c-0.034-0.19-0.068-0.376-0.104-0.559l8.251,4.764C125.61,174.204,124.164,176.378,122.434,178.376z M117.279,171.98 c0.007,2.487-0.383,5.057-1.159,7.647c-0.126,0.066-0.253,0.136-0.38,0.209c-1.459,0.843-2.876,2.127-4.083,3.689 c-0.09-0.15-0.185-0.289-0.279-0.43c-0.039-0.058-0.075-0.119-0.114-0.176c-0.177-0.252-0.361-0.49-0.552-0.713 c-0.045-0.053-0.092-0.101-0.138-0.152c-0.152-0.17-0.307-0.332-0.466-0.486c-0.065-0.062-0.13-0.124-0.196-0.183 c-0.158-0.143-0.318-0.279-0.482-0.408c-0.055-0.043-0.109-0.089-0.164-0.131c-0.218-0.164-0.44-0.317-0.666-0.458 c-0.039-0.024-0.08-0.045-0.12-0.069c-0.191-0.115-0.384-0.223-0.579-0.323c-0.069-0.036-0.138-0.069-0.207-0.103 c-0.18-0.087-0.36-0.168-0.542-0.243c-0.059-0.025-0.118-0.051-0.178-0.074c-0.241-0.095-0.482-0.182-0.724-0.258 c-0.008-0.002-0.017-0.004-0.025-0.007c-0.234-0.073-0.467-0.136-0.699-0.194c-0.06-0.015-0.119-0.028-0.179-0.042 c-0.193-0.044-0.383-0.084-0.573-0.119c-0.052-0.01-0.104-0.02-0.155-0.029c-0.48-0.083-0.949-0.137-1.399-0.17 c-0.045-0.003-0.089-0.005-0.133-0.008c-0.095-0.006-0.192-0.014-0.285-0.018c0.004-0.006,0.008-0.013,0.012-0.019 c0.468-0.733,0.958-1.45,1.459-2.155c0.075-0.105,0.148-0.211,0.223-0.315c0.486-0.672,0.987-1.326,1.498-1.965 c0.093-0.116,0.186-0.231,0.28-0.346c0.517-0.634,1.045-1.251,1.583-1.845c0.078-0.086,0.158-0.168,0.236-0.254 c0.569-0.618,1.146-1.219,1.733-1.786c0.527-0.51,1.062-0.997,1.6-1.464c0.17-0.147,0.343-0.279,0.513-0.422 c0.371-0.31,0.742-0.62,1.116-0.909c0.211-0.163,0.424-0.309,0.636-0.465c0.338-0.248,0.675-0.498,1.015-0.729 c0.231-0.157,0.463-0.298,0.695-0.447c0.034-0.022,0.068-0.042,0.102-0.064l0.97,0.561 C116.912,167.652,117.273,169.627,117.279,171.98z M100.983,196.564c0.09-0.062,0.182-0.124,0.273-0.185 c0.534-0.361,1.066-0.702,1.593-1.008l0.101-0.058c0.506-0.289,1.002-0.542,1.491-0.771c0.157-0.074,0.309-0.134,0.465-0.201 c0.332-0.144,0.661-0.28,0.983-0.396c0.174-0.062,0.345-0.117,0.516-0.172c0.303-0.096,0.601-0.179,0.895-0.25 c0.164-0.039,0.329-0.079,0.49-0.111c0.09-0.017,0.176-0.022,0.265-0.037c0.041,1.708,0.51,3.151,1.347,4.169 c-0.258,0.278-0.51,0.56-0.757,0.845c-0.874,1.008-1.662,2.06-2.402,3.125l-6.718-3.879 C100.014,197.257,100.5,196.898,100.983,196.564z M108.028,201.997c0.101-0.14,0.199-0.281,0.301-0.42 c0.171-0.232,0.35-0.46,0.527-0.689c0.09-0.115,0.176-0.232,0.267-0.346c0.272-0.341,0.552-0.679,0.84-1.012 c0.257-0.297,0.532-0.582,0.802-0.871c0.048,0.025,0.101,0.038,0.15,0.062c0.184,0.089,0.372,0.171,0.568,0.233 c0.095,0.03,0.196,0.047,0.294,0.072c0.169,0.041,0.338,0.08,0.514,0.103c0.113,0.015,0.228,0.019,0.344,0.026 c0.107,0.006,0.211,0.024,0.32,0.024c0.072,0,0.145-0.011,0.217-0.014c0.092-0.004,0.184-0.01,0.277-0.018 c0.211-0.018,0.425-0.05,0.641-0.092c0.056-0.011,0.111-0.011,0.168-0.024c-0.568,2.229-0.856,4.442-0.875,6.604l-5.631-3.251 C107.844,202.255,107.936,202.126,108.028,201.997z M114.679,213.647c-0.124,0.064-0.245,0.115-0.369,0.176v-1.324 C114.431,212.909,114.554,213.298,114.679,213.647z M114.577,215.637c0.535-0.251,1.072-0.521,1.611-0.817 c0.172-0.095,0.346-0.192,0.518-0.291c0.552-0.319,1.101-0.666,1.647-1.027c0.169-0.112,0.337-0.231,0.506-0.347 c0.385-0.265,0.768-0.539,1.149-0.825c0.183-0.137,0.365-0.275,0.547-0.417c0.396-0.308,0.789-0.63,1.181-0.961 c0.144-0.122,0.288-0.237,0.431-0.362c0.047-0.041,0.095-0.078,0.143-0.12l0.029,10.354c-1.934,0.448-3.935,1.237-5.959,2.352 c-0.171,0.094-0.345,0.192-0.517,0.291c-0.52,0.3-1.038,0.624-1.554,0.962v-8.672C114.399,215.716,114.488,215.679,114.577,215.637z M114.31,226.556c0.188-0.134,0.374-0.276,0.563-0.404c0.241-0.163,0.484-0.312,0.726-0.467c0.248-0.158,0.495-0.315,0.743-0.464 c0.032,0.093,0.063,0.186,0.095,0.284c0.027,0.083,0.054,0.164,0.08,0.251c0.066,0.213,0.13,0.437,0.192,0.669 c0.011,0.042,0.023,0.08,0.035,0.122c0.072,0.275,0.141,0.564,0.206,0.865c0.018,0.085,0.035,0.175,0.052,0.261 c0.045,0.221,0.089,0.448,0.129,0.682c0.019,0.116,0.037,0.236,0.055,0.355c0.034,0.22,0.065,0.445,0.093,0.675 c0.016,0.128,0.031,0.256,0.044,0.388c0.026,0.246,0.046,0.5,0.064,0.756c0.008,0.121,0.019,0.239,0.026,0.362 c0.02,0.382,0.034,0.774,0.035,1.178c0.001,0.636-0.024,1.279-0.074,1.925c-0.017,0.211-0.051,0.425-0.073,0.637 c-0.045,0.437-0.088,0.873-0.156,1.313c-0.04,0.26-0.1,0.523-0.148,0.784c-0.073,0.395-0.142,0.788-0.234,1.185 c-0.066,0.286-0.15,0.573-0.226,0.859c-0.084,0.316-0.166,0.633-0.261,0.95c-0.122,0.064-0.244,0.131-0.367,0.202 c-0.544,0.313-1.077,0.707-1.6,1.135V226.556z M114.31,243.41c0.784-0.808,1.621-1.484,2.472-1.975c0,0,0,0,0,0 c0.201-0.116,0.402-0.221,0.604-0.315c0.2-0.095,0.399-0.178,0.593-0.249c0.047-0.017,0.091-0.027,0.137-0.042 c0.146-0.05,0.292-0.098,0.435-0.134c0.064-0.016,0.125-0.023,0.187-0.036c0.121-0.025,0.243-0.053,0.36-0.069 c0.079-0.01,0.155-0.01,0.233-0.016c0.096-0.007,0.194-0.018,0.287-0.018c0.121,0,0.236,0.014,0.352,0.026 c0.048,0.005,0.098,0.004,0.145,0.012c0.149,0.023,0.291,0.058,0.43,0.102c0.011,0.004,0.023,0.005,0.035,0.009 c0.301,0.099,0.577,0.248,0.825,0.447c0.877,0.696,1.363,2.008,1.368,3.695c0,0.238-0.009,0.478-0.026,0.72 c-0.045,0.61-0.148,1.248-0.306,1.897c-0.1,0.41-0.221,0.822-0.362,1.233c-0.423,1.235-1.024,2.465-1.772,3.613 c-1.221,1.884-2.766,3.424-4.35,4.339c-0.203,0.117-0.403,0.222-0.605,0.315c-0.202,0.095-0.401,0.179-0.597,0.25 c-0.151,0.055-0.299,0.096-0.446,0.137V243.41z M114.746,275.727c0.535-0.251,1.073-0.521,1.613-0.818 c0.001-0.001,0.003-0.002,0.005-0.003l0.513-0.289c1.907-1.101,3.786-2.462,5.604-4.059l0.037,13.008l-8.208,4.738v-12.387 C114.456,275.853,114.6,275.795,114.746,275.727z M256.766,131.167l0.032,11.179l-106.014,61.207l-0.05-17.7 c0.073,0.019,0.149,0.03,0.225,0.03c0.151,0,0.302-0.039,0.436-0.117l99.934-57.697L256.766,131.167z M80.03,145.066l-5.606,3.237 c-0.271,0.157-0.437,0.446-0.436,0.758l0.096,33.884l-21.225-12.254v-41.312L80.03,145.066z M102.848,212.787v160.049 l-91.386-52.948V160.026L102.848,212.787z M50.471,344.505l52.812,30.598c0,0,0.001,0.001,0.002,0.001l9.281,5.378v52.415 L1.744,368.912v-52.64L50.471,344.505z M114.31,379.979v-2.803l54.539,31.487v25.475v20.153l-54.539-31.487V379.979z M356.458,132.362v192.957l-7.975,4.604V147.684c0-0.311-0.166-0.599-0.436-0.755c-0.27-0.156-0.601-0.156-0.872,0l-168.173,97.095 c-0.27,0.156-0.436,0.443-0.436,0.755v183.245l-7.974,4.604v-85.508v-42.962v-64.487L356.458,132.362z M269.131,180.766v-3.824 l10.991-6.387c0.269-0.157,0.434-0.444,0.434-0.755c0-0.311-0.167-0.598-0.436-0.754l-10.214-5.897l10.216-5.937 c0.269-0.157,0.434-0.444,0.434-0.755c0-0.311-0.167-0.598-0.436-0.754l-10.988-6.344V117.79l12.01-6.934l0.497,62.69 L269.131,180.766z M51.115,128.372v41.312l-11.85-6.842V121.53L51.115,128.372z M112.566,207.177v171.289l-7.974-4.621V212.283 c0-0.311-0.166-0.599-0.436-0.755l-93.13-53.767c-0.27-0.156-0.602-0.156-0.872,0c-0.27,0.156-0.436,0.444-0.436,0.755v160.361 l-7.974-4.621V143.193L112.566,207.177z M1.744,370.926l110.822,63.985v8.55L1.744,379.476V370.926z M114.31,424.818l54.539,31.487 v8.818l-54.539-31.488V424.818z M170.592,497.618v-8.55l185.866-107.309v8.55L170.592,497.618z"/></g></svg>