<?xml version="1.0" encoding="UTF-8" standalone="no"?><svg xmlns="http://www.w3.org/2000/svg" xmlns:xlink="http://www.w3.org/1999/xlink" contentScriptType="text/ecmascript" fill="none" width="303" zoomAndPan="magnify" style="fill: none" contentStyleType="text/css" viewBox="0 0 303 269" height="269" preserveAspectRatio="xMidYMid meet" version="1"><path fill="url(#paint0_linear)" d="M291.035 153.544C305.065 161.586 305.065 174.589 291.206 182.631L177.253 248.846C163.394 256.888 140.809 256.888 126.95 248.846L11.9705 182.631C-1.88862 174.589 -2.05967 161.586 11.7994 153.544L125.752 87.3281C139.611 79.2865 162.196 79.2865 176.055 87.3281L291.035 153.544Z"/><path fill="url(#paint1_linear)" d="M246.378 172.023C245.351 173.905 243.469 175.787 240.903 177.327L167.843 219.76C158.946 224.893 144.573 224.893 135.676 219.76L62.2742 177.327C59.5366 175.787 57.6544 173.905 56.6278 171.852C54.2324 167.403 55.9434 162.099 62.103 158.506L135.163 116.073C144.06 110.94 158.432 110.94 167.33 116.073L240.731 158.506C247.062 162.27 248.944 167.575 246.378 172.023Z"/><path fill="url(#paint2_linear)" d="M246.378 172.023C245.351 173.906 243.469 175.788 240.902 177.328L167.843 219.76C158.945 224.893 144.573 224.893 135.676 219.76L62.2741 177.328C59.5365 175.788 57.6543 173.905 56.6277 171.852C57.6543 169.97 59.5364 168.088 62.1029 166.548L135.163 124.115C144.06 118.982 158.432 118.982 167.329 124.115L240.731 166.548C243.469 168.259 245.351 170.141 246.378 172.023Z"/><path fill="url(#paint3_linear)" d="M291.206 182.631L177.253 248.846C163.394 256.888 140.809 256.888 126.95 248.846L11.9707 182.631C4.95565 178.524 1.53369 173.22 1.53369 167.916V181.946C1.53369 187.25 4.95565 192.554 11.9707 196.661L126.779 262.877C140.809 270.918 163.223 270.918 177.082 262.877L291.035 196.661C297.879 192.726 301.301 187.421 301.301 182.117V168.087C301.472 173.391 298.05 178.695 291.206 182.631Z"/><path fill="url(#paint4_linear)" d="M151.417 167.232C197.436 167.232 234.743 129.926 234.743 83.9067C234.743 37.8872 197.436 0.581055 151.417 0.581055C105.397 0.581055 68.0913 37.8872 68.0913 83.9067C68.0913 129.926 105.397 167.232 151.417 167.232Z"/><path fill="url(#paint5_linear)" d="M88.4523 129.762C69.4602 129.762 55.7722 124.971 52.1791 115.56C44.6507 96.055 82.1216 63.3749 135.676 42.8429C161.512 32.9191 187.177 27.2728 207.88 26.9306C228.925 26.4173 242.613 31.5503 246.207 41.1319C249.971 50.7135 243.127 63.7171 227.214 77.4051C211.473 90.922 188.546 103.926 162.881 113.849C135.334 124.458 108.813 129.762 88.4523 129.762ZM53.8901 115.047C61.0763 133.697 109.669 132.499 162.368 112.309C188.033 102.557 210.618 89.7243 226.188 76.2074C241.587 62.8616 248.089 50.7134 244.667 41.8162C241.245 32.919 228.241 28.2994 207.88 28.6416C187.348 28.9838 161.854 34.6301 136.189 44.5539C83.6614 64.7437 46.7039 96.2261 53.8901 115.047Z"/><path fill="url(#paint6_linear)" d="M213.013 133.183C210.446 133.183 207.88 133.012 204.971 132.841C184.268 131.301 158.945 124.286 133.623 112.994C108.471 101.701 86.2279 87.6707 71.1711 73.2983C55.9432 58.7548 49.9547 45.409 54.0611 35.9985C58.3386 26.588 72.1978 22.3104 93.243 23.8503C113.946 25.3902 139.269 32.4054 164.592 43.698C216.948 66.9676 252.537 101.53 243.982 120.693C240.56 128.906 229.61 133.183 213.013 133.183ZM85.3725 25.2192C69.6313 25.2192 59.1942 29.1544 55.9433 36.6828C52.008 45.4089 57.9965 57.8993 72.7111 71.9295C87.5967 86.1308 109.498 100.161 134.649 111.454C159.63 122.575 184.781 129.59 205.313 131.13C225.503 132.67 238.849 128.564 242.784 120.009C250.997 101.701 215.751 68.1652 164.25 45.2378C139.269 34.1163 114.117 27.1012 93.5853 25.5613C90.5055 25.3902 87.939 25.2192 85.3725 25.2192Z"/><path fill="url(#paint7_linear)" d="M151.93 195.122C142.691 195.122 133.452 193.068 126.265 188.962L11.4573 122.746C4.44218 118.64 0.506836 113.165 0.506836 107.347C0.506836 101.53 4.27102 96.0548 11.2861 92.1195L125.239 25.9037C139.269 17.6909 162.196 17.6909 176.398 25.9037L291.206 92.1195C298.221 96.2259 302.156 101.701 302.156 107.518C302.156 113.336 298.392 118.811 291.377 122.746L177.424 188.962C170.58 193.068 161.341 195.122 151.93 195.122ZM151.075 21.4552C142.178 21.4552 133.109 23.5084 126.437 27.4437L12.4838 93.6594C6.15314 97.4236 2.56006 102.214 2.56006 107.518C2.56006 112.651 6.1532 117.613 12.655 121.378L127.463 187.593C141.151 195.464 163.394 195.464 176.911 187.593L290.864 121.378C297.194 117.613 300.787 112.823 300.787 107.518C300.787 102.385 297.194 97.4236 290.693 93.6594L175.884 27.4437C168.869 23.3373 159.972 21.4552 151.075 21.4552Z"/><path fill="url(#paint8_linear)" d="M245.18 46.9492C247.92 46.9492 250.142 44.7278 250.142 41.9874C250.142 39.247 247.92 37.0254 245.18 37.0254C242.44 37.0254 240.218 39.247 240.218 41.9874C240.218 44.7278 242.44 46.9492 245.18 46.9492Z"/><path fill="url(#paint9_linear)" d="M149.026 123.516C151.767 123.516 153.988 121.294 153.988 118.554C153.988 115.813 151.767 113.592 149.026 113.592C146.286 113.592 144.064 115.813 144.064 118.554C144.064 121.294 146.286 123.516 149.026 123.516Z"/><path fill="url(#paint10_linear)" d="M55.43 41.1317C58.1704 41.1317 60.3918 38.9102 60.3918 36.1698C60.3918 33.4294 58.1704 31.208 55.43 31.208C52.6896 31.208 50.468 33.4294 50.468 36.1698C50.468 38.9102 52.6896 41.1317 55.43 41.1317Z" fill-opacity="0.75"/><defs><linearGradient x1="-142.268" y1="-79.465" x2="460.399" gradientUnits="userSpaceOnUse" y2="358.08" xlink:type="simple" xlink:actuate="onLoad" id="paint0_linear" xlink:show="other"><stop stop-color="#ffffff"/><stop stop-color="#120edb" offset="1"/></linearGradient><linearGradient x1="38.619" y1="223.754" x2="211.474" gradientUnits="userSpaceOnUse" y2="254.036" xlink:type="simple" xlink:actuate="onLoad" id="paint1_linear" xlink:show="other"><stop stop-color="#14dfe8"/><stop stop-color="#120edb" offset="1"/></linearGradient><linearGradient x1="-66.064" y1="-43.552" x2="185.02" gradientUnits="userSpaceOnUse" y2="167.314" xlink:type="simple" xlink:actuate="onLoad" id="paint2_linear" xlink:show="other"><stop stop-color="#ffffff"/><stop stop-color="#120edb" offset="1"/></linearGradient><linearGradient x1="-192.298" y1="7.828" x2="82.425" gradientUnits="userSpaceOnUse" y2="416.521" xlink:type="simple" xlink:actuate="onLoad" id="paint3_linear" xlink:show="other"><stop stop-color="#ffffff"/><stop stop-color="#120edb" offset="1"/></linearGradient><linearGradient x1="118.506" y1="-74.427" x2="619.113" gradientUnits="userSpaceOnUse" y2="-39.108" xlink:type="simple" xlink:actuate="onLoad" id="paint4_linear" xlink:show="other"><stop stop-color="#14dfe8"/><stop stop-color="#770dff" offset="0.534"/><stop stop-color="#120edb" offset="1"/></linearGradient><linearGradient x1="180.734" y1="111.18" x2="155.683" gradientUnits="userSpaceOnUse" y2="52.955" xlink:type="simple" xlink:actuate="onLoad" id="paint5_linear" xlink:show="other"><stop stop-color="#14dfe8"/><stop stop-opacity="0" stop-color="#ffffff" offset="1"/></linearGradient><linearGradient x1="137.122" y1="121.109" x2="168.375" gradientUnits="userSpaceOnUse" y2="61.84" xlink:type="simple" xlink:actuate="onLoad" id="paint6_linear" xlink:show="other"><stop stop-color="#14dfe8"/><stop stop-opacity="0" stop-color="#ffffff" offset="1"/></linearGradient><linearGradient x1="157.075" y1="207.86" x2="118.005" gradientUnits="userSpaceOnUse" y2="70.944" xlink:type="simple" xlink:actuate="onLoad" id="paint7_linear" xlink:show="other"><stop stop-color="#14dfe8"/><stop stop-opacity="0" stop-color="#ffffff" offset="1"/></linearGradient><linearGradient x1="270.1" y1="25.586" x2="230.644" gradientUnits="userSpaceOnUse" y2="43.534" xlink:type="simple" xlink:actuate="onLoad" id="paint8_linear" xlink:show="other"><stop stop-color="#14dfe8"/><stop stop-color="#ffffff" offset="1"/></linearGradient><linearGradient x1="173.946" y1="102.152" x2="134.49" gradientUnits="userSpaceOnUse" y2="120.1" xlink:type="simple" xlink:actuate="onLoad" id="paint9_linear" xlink:show="other"><stop stop-color="#14dfe8"/><stop stop-color="#ffffff" offset="1"/></linearGradient><linearGradient x1="80.35" y1="19.768" x2="40.894" gradientUnits="userSpaceOnUse" y2="37.717" xlink:type="simple" xlink:actuate="onLoad" id="paint10_linear" xlink:show="other"><stop stop-color="#14dfe8"/><stop stop-color="#ffffff" offset="1"/></linearGradient></defs></svg>