<?xml version="1.0" encoding="UTF-8" standalone="no"?><svg xmlns="http://www.w3.org/2000/svg" xmlns:xlink="http://www.w3.org/1999/xlink" contentScriptType="text/ecmascript" fill="#000000" width="71.6" zoomAndPan="magnify" contentStyleType="text/css" viewBox="0.0 0.0 71.6 71.6" height="71.6" preserveAspectRatio="xMidYMid meet" version="1"><g fill="#ffffff" id="change1_1"><path d="m35.8,71.59C16.06,71.59,0,55.53,0,35.8S16.06,0,35.8,0s35.79,16.06,35.79,35.8-16.06,35.8-35.79,35.8Zm0-68.59C17.71,3,3,17.71,3,35.8s14.71,32.8,32.8,32.8,32.79-14.71,32.79-32.8S53.88,3,35.8,3Z"/><path d="m36.62,52.31c-.38,0-.77-.15-1.06-.44-.59-.59-.59-1.54,0-2.12l13.08-13.08-13.08-13.08c-.59-.59-.59-1.54,0-2.12.59-.59,1.54-.59,2.12,0l13.5,13.5c.46.46.71,1.06.71,1.7s-.25,1.25-.71,1.7l-13.5,13.5c-.29.29-.68.44-1.06.44Zm12.44-15.23h0,0Z"/><path d="m50.37,38.17h-28.92c-.83,0-1.5-.67-1.5-1.5s.67-1.5,1.5-1.5h28.92c.83,0,1.5.67,1.5,1.5s-.67,1.5-1.5,1.5Z"/></g></svg>