<?xml version="1.0" encoding="UTF-8" standalone="no"?><svg xmlns="http://www.w3.org/2000/svg" xmlns:xlink="http://www.w3.org/1999/xlink" contentScriptType="text/ecmascript" fill="#000000" width="2289" zoomAndPan="magnify" contentStyleType="text/css" viewBox="292.3 607.0 2289.1 1730.7" height="1731" data-name="Layer 1" preserveAspectRatio="xMidYMid meet" version="1"><g id="change1_1"><path fill="#ffffff" d="M1639.4,2257.9h-405.1c-22.6,0-40.9-18.3-40.9-40.9H292.3c0,66.7,54,120.7,120.7,120.7h2047.7c66.7,0,120.7-54,120.7-120.7h-901.1c0,22.6-18.3,40.9-40.9,40.9Z"/></g><g id="change1_2"><path fill="#ffffff" d="M1353.8,2132h911.9c35.9,0,65.1-29.1,65.1-65.1V1019.8c0-35.9-29.1-65.1-65.1-65.1h-99.4c-14.5-82.4-49.4-153-106.5-204.8-157.7-142.9-439.5-105-711.8,70.8,221.8-110.1,436.7-119.7,565.1-3.3,205.7,186.4,111.3,625.6-210.8,980.8-211.9,233.7-469.6,372.9-679.6,387.7,98.6,13.1,212.8-6.2,331.2-53.8ZM1838.1,1781.1c220.4-243.1,339.2-523.5,335.8-743.8,34.4,1.7,61.9,29.9,61.9,64.7v882.6c0,35.9-29.1,65.1-65.1,65.1h-654.2c111-67.5,221.2-157.9,321.6-268.7Z"/></g><g id="change1_3"><path fill="#ffffff" d="M992,970.7c-1.4.1-2.5,1.1-2.9,2.4-2.5,8.4-4.5,17-5.8,26-1.2,8.9-1.7,17.8-1.6,26.6,0,1.4.9,2.6,2.1,3.1l24.8,10c1.5,13.5,5,26.4,10.1,38.7l-16.8,20.8c-.9,1.1-1,2.5-.4,3.7,8.4,15.7,19.2,30,32,42.3,1,.9,2.4,1.2,3.7.7l24.6-10.5c10.3,8.2,21.9,15.1,34.4,20.3l2.9,26.6c.1,1.4,1.1,2.5,2.4,2.9,8.4,2.5,17,4.5,26,5.8,8.9,1.2,17.8,1.7,26.6,1.6,1.4,0,2.6-.9,3.1-2.1l10-24.8c13.5-1.5,26.4-5,38.7-10.1l20.8,16.8c1.1.9,2.5,1,3.7.4,15.7-8.4,30-19.2,42.3-32,.9-1,1.2-2.4.7-3.7l-10.5-24.6c8.2-10.3,15.1-21.9,20.3-34.4l26.6-2.9c1.3-.1,2.5-1.1,2.9-2.4,2.6-8.4,4.5-17,5.8-26,1.3-8.9,1.7-17.8,1.6-26.6,0-1.4-.9-2.6-2.1-3.1l-24.8-10c-1.5-13.5-5-26.4-10.1-38.7l16.8-20.8c.9-1.1,1-2.5.4-3.7-8.4-15.7-19.2-30-32-42.3-1-.9-2.4-1.2-3.7-.7l-24.6,10.5c-10.4-8.2-21.9-15.1-34.4-20.3l-2.9-26.6c-.1-1.4-1.1-2.5-2.4-2.9-8.4-2.5-17-4.5-26-5.8-8.9-1.2-17.8-1.7-26.6-1.6-1.4,0-2.6.9-3.1,2.1l-10,24.8c-13.5,1.5-26.4,5-38.7,10.1l-20.8-16.8c-1.1-.9-2.5-1-3.7-.4-15.7,8.4-30,19.2-42.3,32-.9,1-1.2,2.4-.7,3.7l10.5,24.6c-8.2,10.3-15.1,21.9-20.3,34.4l-26.6,2.9ZM1044.6,1007.6c8.2-58.7,62.4-99.7,121.1-91.5,58.7,8.2,99.7,62.4,91.5,121.1-8.2,58.7-62.4,99.7-121.1,91.5-58.7-8.2-99.7-62.4-91.5-121.1Z"/></g><g id="change1_4"><path fill="#ffffff" d="M1137.3,1120.1c12.1,1.7,24.1,1.1,35.4-1.5-7.4.7-15,.6-22.7-.4-52-7.3-88.3-55.3-81-107.3,7.2-52,55.3-88.3,107.3-81,7.7,1.1,15,3.1,21.9,5.8-10.2-5.5-21.5-9.4-33.6-11.1-54-7.5-103.8,30.1-111.4,84.1s30.1,103.8,84.1,111.4Z"/></g><g id="change1_5"><path fill="#ffffff" d="M874.3,1321.2c-1.2,0-2.2.8-2.6,1.9-2.5,7.1-4.6,14.4-6,22-1.4,7.6-2.2,15.2-2.4,22.7,0,1.2.6,2.2,1.7,2.7l20.8,9.6c.8,11.6,3.2,22.8,7,33.5l-15.2,17.1c-.8.9-1,2.1-.5,3.2,6.5,13.8,15.2,26.4,25.6,37.5.8.9,2,1.1,3.1.7l21.5-7.9c8.5,7.5,18.1,13.8,28.6,18.7l1.4,22.9c0,1.2.8,2.2,1.9,2.6,7.1,2.5,14.4,4.6,22,6,7.6,1.4,15.2,2.2,22.7,2.4,1.2,0,2.2-.6,2.7-1.7l9.6-20.8c11.6-.8,22.8-3.2,33.5-7l17.1,15.2c.9.8,2.1,1,3.2.5,13.8-6.5,26.4-15.2,37.5-25.6.8-.8,1.1-2,.7-3.1l-7.9-21.5c7.5-8.5,13.8-18.1,18.7-28.6l22.9-1.4c1.2,0,2.2-.8,2.6-1.9,2.5-7.1,4.5-14.4,6-22,1.4-7.6,2.2-15.2,2.4-22.7,0-1.2-.6-2.2-1.7-2.7l-20.8-9.6c-.8-11.6-3.2-22.8-7-33.5l15.2-17.1c.8-.9,1-2.1.5-3.2-6.5-13.8-15.2-26.4-25.6-37.5-.8-.8-2-1.1-3.1-.7l-21.5,7.9c-8.5-7.5-18.1-13.8-28.6-18.7l-1.4-22.9c0-1.2-.8-2.2-1.9-2.6-7.1-2.5-14.4-4.6-22-6-7.6-1.4-15.2-2.2-22.7-2.4-1.2,0-2.2.6-2.7,1.7l-9.6,20.8c-11.6.8-22.8,3.2-33.5,7l-17.1-15.2c-.9-.8-2.1-1-3.2-.5-13.8,6.5-26.4,15.2-37.5,25.6-.8.8-1.1,2-.7,3.1l7.9,21.5c-7.5,8.5-13.8,18.1-18.7,28.6l-22.9,1.4ZM917.8,1354.9c9.4-49.9,57.5-82.7,107.3-73.3,49.9,9.4,82.7,57.5,73.3,107.3-9.4,49.9-57.5,82.7-107.3,73.3s-82.7-57.5-73.3-107.3Z"/></g><g id="change1_6"><path fill="#ffffff" d="M992.5,1455c10.3,1.9,20.5,1.9,30.3.2-6.4.3-12.9,0-19.4-1.3-44.2-8.3-73.3-50.9-64.9-95.1,8.3-44.2,50.9-73.3,95.1-64.9,6.5,1.2,12.7,3.2,18.5,5.9-8.5-5.2-18-8.9-28.3-10.9-45.9-8.6-90.1,21.5-98.7,67.4-8.6,45.9,21.5,90.1,67.4,98.7Z"/></g><g id="change1_7"><path fill="#ffffff" d="M634.9,1299.4c-11.6-1.8-20.9-10.4-23.8-21.8l-5.7-22.7c-10.5-3.5-20.7-7.7-30.7-12.7l-20.1,12c-3.5,2.1-7.5,3.2-11.6,3.7v809c0,35.9,29.1,65.1,65.1,65.1h531.4c53.3-21.5,107.4-49,161.3-82.3h-597.9c-35.9,0-65.1-29.1-65.1-65.1v-684.9c-1-.1-2-.2-3-.4Z"/></g><g id="change1_8"><path fill="#ffffff" d="M1915.8,1037c-3.5-28.9-9.4-56.4-18-82.3h-574.4c-1,2.7-2.4,5.3-4.3,7.6l-8.1,10.1c1.7,5.4,3.1,10.9,4.3,16.5l12,4.9c10.4,4.2,17.3,14.2,17.4,25.5,0,5.9-.2,11.9-.6,17.8h571.8Z"/></g><g id="change1_9"><path fill="#ffffff" d="M445.6,1082.4l36.3,9.1c4.7,18.4,12,35.7,21.4,51.6l-19.3,32.1c-1,1.6-.9,3.7.2,5.3,14.6,20.1,32.4,37.8,52.5,52.5,1.5,1.1,3.6,1.2,5.3.2l32.1-19.3c15.9,9.4,33.3,16.7,51.6,21.4l9.1,36.3c.5,1.8,2,3.3,3.9,3.6,12.1,1.9,24.5,3,37.1,3s25-1,37.1-3c1.9-.3,3.4-1.7,3.9-3.6l9.1-36.3c18.4-4.7,35.7-12,51.6-21.4l32.1,19.3c1.6,1,3.7.9,5.3-.2,20.1-14.6,37.8-32.4,52.5-52.5,1.1-1.5,1.2-3.6.2-5.3l-19.3-32.1c9.4-15.9,16.7-33.3,21.4-51.6l36.3-9.1c1.8-.5,3.3-2,3.6-3.9,1.9-12.1,3-24.5,3-37.1s-1-25-3-37.1c-.3-1.9-1.7-3.4-3.6-3.9l-36.3-9.1c-4.7-18.4-12-35.7-21.4-51.6l19.3-32.1c1-1.6.9-3.7-.2-5.3-14.6-20.1-32.4-37.8-52.5-52.5-1.5-1.1-3.6-1.2-5.3-.2l-32.1,19.3c-15.9-9.4-33.3-16.7-51.6-21.4l-9.1-36.3c-.5-1.8-2-3.3-3.9-3.6-12.1-1.9-24.5-3-37.1-3s-25,1-37.1,3c-1.9.3-3.4,1.7-3.9,3.6l-9.1,36.3c-18.4,4.7-35.7,12-51.6,21.4l-32.1-19.3c-1.6-1-3.7-.9-5.3.2-20.1,14.6-37.8,32.4-52.5,52.5-1.1,1.5-1.2,3.6-.2,5.3l19.3,32.1c-9.4,15.9-16.7,33.3-21.4,51.6l-36.3,9.1c-1.9.5-3.3,2-3.6,3.9-1.9,12.1-3,24.5-3,37.1s1,25,3,37.1c.3,1.9,1.7,3.4,3.6,3.9ZM675.8,891.2c83,0,150.2,67.3,150.2,150.2s-67.2,150.2-150.2,150.2-150.2-67.3-150.2-150.2,67.3-150.2,150.2-150.2Z"/></g><g id="change1_10"><path fill="#ffffff" d="M675.8,1179.5c17.2,0,33.6-3.2,48.7-8.9-10.1,2.5-20.7,3.8-31.5,3.8-73.5,0-133-59.6-133-133s59.6-133,133-133,21.4,1.3,31.5,3.8c-15.2-5.7-31.6-8.9-48.7-8.9-76.3,0-138.1,61.8-138.1,138.1s61.8,138.1,138.1,138.1Z"/></g></svg>