<?xml version="1.0" encoding="UTF-8" standalone="no"?><svg xmlns="http://www.w3.org/2000/svg" xmlns:xlink="http://www.w3.org/1999/xlink" contentScriptType="text/ecmascript" fill="#000000" width="393.1" zoomAndPan="magnify" contentStyleType="text/css" viewBox="0.0 -1.2 393.1 501.2" height="501.2" preserveAspectRatio="xMidYMid meet" version="1"><g id="change1_1"><path fill="#1c0140" d="M176.89,403.79l52.77-24.26l5.75,21.28l-52.75,30.45l-4.07-6.6L176.89,403.79z"/></g><g id="change2_1"><path fill="#5284ff" d="M182.66,409.22v22.04l-93.19-53.8v-14.08"/></g><g id="change3_1"><path fill="#9fcdff" d="M225.27,392.58l-42.61,24.6l-93.19-53.8l40.91-23.62 M306.45,224.51l11-60.27 c-2.78-4.81-6.8-8.91-11.79-11.79L50.15,4.94c-7.99-4.61-17.83-4.61-25.81,0l-12.45,7.19c-6.43,3.72-10.4,10.58-10.4,18.01v5.97 l196.68,285.46L306.45,224.51z"/></g><g id="change1_2"><path fill="#1c0140" d="M203.5,366.12v21.02l-21.2,12.24l-10.16-14.42l9.16-29.01 M321.77,398.98V180.35 c0-5.75-1.53-11.29-4.31-16.1l-36.52,21.08l-82.76,136.24l69.91,101.47l7.88,4.55c6.22,3.59,13.88,3.59,20.09,0l13.79-7.96 C317.23,415.37,321.77,407.5,321.77,398.98z"/></g><g id="change2_2"><path fill="#5284ff" d="M390.22,472.58c-1.16,2.01-3.72,2.69-5.73,1.53l-14.45-8.34c-14.12-8.15-31.67-8.15-45.8,0l-41.26,23.82 c-10.3,5.94-21.84,8.92-33.38,8.92c-11.15,0-22.29-2.77-32.32-8.32c-8.43-4.66-13.96-13.44-13.84-23.08 c0.12-9.1,4.88-17.23,12.78-21.79l19-10.97c5.75-3.32,9.29-9.45,9.29-16.09v-8.84l-62.22-35.92v25.88l-60.37-34.28v-26.45 L10.39,274.26c-5.51-3.18-8.9-9.06-8.9-15.42V32.93c0-6.58,7.12-10.69,12.81-7.4l262.04,151.29c5.99,3.46,9.67,9.84,9.67,16.75 v219.12c0,9.2-9.96,14.95-17.93,10.35l-15.19-8.77v4c0,9.63-5.14,18.54-13.48,23.35l-18.62,10.75c-5.51,3.18-9.08,9.05-8.96,15.42 c0.11,6.07,3.3,11.49,8.58,14.54c18,10.39,40.37,10.39,58.37,0l41.26-23.82c16.71-9.65,37.47-9.65,54.18,0l14.45,8.34 C390.69,468.01,391.38,470.58,390.22,472.58z M293.81,413.03l22.48-12.98c0.72-0.41,1.16-1.18,1.16-2c0-1.78-1.93-2.9-3.47-2 l-22.48,12.98c-0.72,0.41-1.16,1.18-1.16,2C290.34,412.81,292.27,413.92,293.81,413.03z M293.81,403.05l22.48-12.98 c0.72-0.41,1.16-1.18,1.16-2l0,0c0-1.78-1.93-2.9-3.47-2l-22.48,12.98c-0.72,0.41-1.16,1.18-1.16,2 C290.34,402.83,292.27,403.94,293.81,403.05z M293.81,393.07l22.48-12.98c0.72-0.41,1.16-1.18,1.16-2l0,0c0-1.78-1.93-2.9-3.47-2 l-22.48,12.98c-0.72,0.41-1.16,1.18-1.16,2C290.34,392.85,292.27,393.96,293.81,393.07z M293.81,383.09l22.48-12.98 c0.72-0.41,1.16-1.18,1.16-2l0,0c0-1.78-1.93-2.9-3.47-2l-22.48,12.98c-0.72,0.41-1.16,1.18-1.16,2 C290.34,382.87,292.27,383.98,293.81,383.09z M293.81,373.12l22.48-12.98c0.72-0.41,1.16-1.18,1.16-2l0,0c0-1.78-1.93-2.9-3.47-2 l-22.48,12.98c-0.72,0.41-1.16,1.18-1.16,2C290.34,372.89,292.27,374.01,293.81,373.12z M293.81,363.14l22.48-12.98 c0.72-0.41,1.16-1.18,1.16-2l0,0c0-1.78-1.93-2.9-3.47-2l-22.48,12.98c-0.72,0.41-1.16,1.18-1.16,2 C290.34,362.91,292.27,364.03,293.81,363.14z"/></g><g id="change1_3"><path fill="#1c0140" d="M261.17,391.33L20.29,252.26c-5.23-3.02-8.45-8.6-8.45-14.63V47.1c0-5.07,5.49-8.24,9.88-5.7l243.3,140.47 c6.33,3.65,10.22,10.41,10.21,17.71l-0.26,183.8C274.95,390.45,267.3,394.87,261.17,391.33z M143.79,328.55 c-3.57-1.87-7.53,0.26-7.53,4.98c0,4.89,3.5,10.01,7.31,12.18c3.81,2.16,7.67-0.59,7.67-4.49S149.03,331.3,143.79,328.55z M391.51,473.33c-0.76,1.31-1.98,2.26-3.45,2.65c-1.46,0.39-3,0.19-4.31-0.57l-14.45-8.34c-13.66-7.89-30.64-7.89-44.3,0 l-41.26,23.82C273.4,496.85,261.6,500,249.6,500c-11.56,0-22.98-2.94-33.04-8.5c-9.14-5.05-14.74-14.41-14.61-24.4 c0.12-9.62,5.18-18.24,13.52-23.06l19-10.97c5.27-3.04,8.54-8.71,8.54-14.8v-7.98l-10.53-6.08l-48.74,28.14 c-0.34,0.2-0.71,0.29-1.09,0.29c-0.38,0-0.76-0.1-1.09-0.29l-0.69-0.4l-92.9-53.64V362.5l1.17-0.67c0,0,0,0,0.01,0l31.28-18.06 v-4.26L9.65,275.55C3.7,272.12,0,265.71,0,258.84V36.11v-3.18v-2.79c0-7.94,4.27-15.33,11.14-19.3L23.6,3.65 c8.42-4.86,18.88-4.86,27.3,0l255.52,147.52c5.11,2.95,9.38,7.22,12.33,12.33c2.95,5.11,4.51,10.94,4.51,16.84v218.64 c0,9.02-4.85,17.42-12.66,21.93l-13.79,7.96c-3.33,1.92-7.06,2.88-10.79,2.88s-7.46-0.96-10.79-2.88l-7.88-4.55l-12.95-7.48v1.41 c0,10.13-5.45,19.58-14.23,24.65l-18.62,10.75c-5.17,2.99-8.32,8.39-8.21,14.1c0.1,5.54,3.03,10.5,7.84,13.28 c17.54,10.13,39.34,10.13,56.88,0l41.26-23.82c17.17-9.91,38.5-9.91,55.67,0l14.45,8.34C392.15,467.13,393.08,470.62,391.51,473.33z M3.63,25.22c0.43-0.36,0.89-0.69,1.39-0.98c3.14-1.81,6.89-1.81,10.03,0l262.04,151.29c6.43,3.71,10.42,10.62,10.42,18.04v219.12 c0,4.86-2.51,9.21-6.72,11.64c-1.46,0.85-3.03,1.39-4.62,1.65l0.55,0.32c5.74,3.31,12.86,3.31,18.6,0l13.79-7.96 c6.89-3.98,11.17-11.39,11.17-19.35V180.35c0-5.38-1.42-10.69-4.11-15.35c-2.69-4.66-6.58-8.55-11.24-11.24L49.41,6.23 c-7.5-4.33-16.82-4.33-24.32,0l-12.45,7.19C8.14,16.02,4.93,20.31,3.63,25.22z M11.14,272.97l257.69,148.78 c3.28,1.89,7.19,1.89,10.46,0c3.28-1.89,5.23-5.28,5.23-9.06V193.57c0-6.36-3.42-12.28-8.93-15.46L13.56,26.82 c-1.1-0.64-2.31-0.96-3.53-0.96c-1.21,0-2.42,0.32-3.53,0.96c-2.21,1.27-3.53,3.56-3.53,6.11v3.18v222.73 C2.98,264.65,6.11,270.06,11.14,272.97z M123.42,364.24l57.39,32.58v-16.49l-57.39-33.13V364.24z M183.79,396.8l17.94-10.35 l-17.94-10.36V396.8z M92.45,363.37l90.21,52.08l34.66-20.01l-12.61-7.28l-22.4,12.93l-1.88-1.07l0,0l-0.16-0.09l-0.76-0.43l0,0 l-59.06-33.54v-18.75L92.45,363.37z M90.96,376.6l89.42,51.63l0,0l0.79,0.45v-10.64l-90.21-52.08V376.6z M229.51,402.49l-9.21-5.32 l-36.15,20.87v10.64L229.51,402.49z M387.94,468.15l-14.45-8.34c-16.25-9.38-36.44-9.38-52.69,0l-41.26,23.82 c-18.46,10.66-41.4,10.66-59.87,0c-5.72-3.3-9.21-9.21-9.33-15.81c-0.12-6.8,3.59-13.21,9.71-16.74l18.62-10.75 c7.86-4.54,12.74-12.99,12.74-22.06v-3.14l-5.41-3.12v6.26c0,7.15-3.85,13.81-10.03,17.38l-19,10.97 c-7.42,4.29-11.92,11.96-12.03,20.52c-0.11,8.9,4.89,17.23,13.07,21.76c9.62,5.32,20.54,8.13,31.6,8.13 c11.47,0,22.76-3.01,32.64-8.72l41.26-23.82c14.58-8.42,32.7-8.42,47.29,0l14.45,8.34c0.63,0.36,1.35,0.46,2.05,0.27 c0.7-0.19,1.28-0.63,1.64-1.26C389.68,470.55,389.23,468.89,387.94,468.15z"/></g></svg>